solid OpenSCAD_Model
  facet normal 0.000000 0.000000 -1.000000
    outer loop
      vertex 0.000000 0.000000 0.000000
      vertex -30.000000 0.000000 -0.000000
      vertex -17.000000 20.000000 -0.000000
    endloop
  endfacet
  facet normal 0.000000 0.000000 -1.000000
    outer loop
      vertex 0.000000 0.000000 0.000000
      vertex -17.000000 20.000000 -0.000000
      vertex 0.000000 100.000000 0.000000
    endloop
  endfacet
  facet normal 0.000000 -0.000000 -1.000000
    outer loop
      vertex -30.000000 62.000000 -0.000000
      vertex 0.000000 100.000000 0.000000
      vertex -17.000000 62.000000 -0.000000
    endloop
  endfacet
  facet normal 0.000000 0.000000 -1.000000
    outer loop
      vertex -17.000000 20.000000 -0.000000
      vertex -17.000000 22.000000 -0.000000
      vertex 0.000000 100.000000 0.000000
    endloop
  endfacet
  facet normal 0.000000 0.000000 -1.000000
    outer loop
      vertex -17.000000 40.000000 -0.000000
      vertex -30.000000 22.000000 -0.000000
      vertex -30.000000 40.000000 -0.000000
    endloop
  endfacet
  facet normal 0.000000 0.000000 -1.000000
    outer loop
      vertex -17.000000 22.000000 -0.000000
      vertex -17.000000 40.000000 -0.000000
      vertex 0.000000 100.000000 0.000000
    endloop
  endfacet
  facet normal 0.000000 0.000000 -1.000000
    outer loop
      vertex -30.000000 22.000000 -0.000000
      vertex -17.000000 40.000000 -0.000000
      vertex -17.000000 22.000000 -0.000000
    endloop
  endfacet
  facet normal 0.000000 0.000000 -1.000000
    outer loop
      vertex -17.000000 40.000000 -0.000000
      vertex -17.000000 42.000000 -0.000000
      vertex 0.000000 100.000000 0.000000
    endloop
  endfacet
  facet normal 0.000000 0.000000 -1.000000
    outer loop
      vertex -17.000000 60.000000 -0.000000
      vertex -30.000000 42.000000 -0.000000
      vertex -30.000000 60.000000 -0.000000
    endloop
  endfacet
  facet normal 0.000000 0.000000 -1.000000
    outer loop
      vertex -30.000000 42.000000 -0.000000
      vertex -17.000000 60.000000 -0.000000
      vertex -17.000000 42.000000 -0.000000
    endloop
  endfacet
  facet normal 0.000000 0.000000 -1.000000
    outer loop
      vertex 0.000000 100.000000 0.000000
      vertex -17.000000 60.000000 -0.000000
      vertex -17.000000 62.000000 -0.000000
    endloop
  endfacet
  facet normal 0.000000 -0.000000 -1.000000
    outer loop
      vertex -30.000000 82.000000 -0.000000
      vertex 0.000000 100.000000 0.000000
      vertex -17.000000 82.000000 -0.000000
    endloop
  endfacet
  facet normal 0.000000 0.000000 -1.000000
    outer loop
      vertex -17.000000 80.000000 -0.000000
      vertex -30.000000 62.000000 -0.000000
      vertex -30.000000 80.000000 -0.000000
    endloop
  endfacet
  facet normal 0.000000 0.000000 -1.000000
    outer loop
      vertex 0.000000 100.000000 0.000000
      vertex -30.000000 62.000000 -0.000000
      vertex -17.000000 80.000000 -0.000000
    endloop
  endfacet
  facet normal 0.000000 0.000000 -1.000000
    outer loop
      vertex 0.000000 100.000000 0.000000
      vertex -17.000000 80.000000 -0.000000
      vertex -17.000000 82.000000 -0.000000
    endloop
  endfacet
  facet normal 0.000000 0.000000 -1.000000
    outer loop
      vertex 0.000000 100.000000 0.000000
      vertex -30.000000 82.000000 -0.000000
      vertex -30.000000 100.000000 -0.000000
    endloop
  endfacet
  facet normal 0.000000 0.000000 -1.000000
    outer loop
      vertex -17.000000 20.000000 -0.000000
      vertex -30.000000 0.000000 -0.000000
      vertex -30.000000 20.000000 -0.000000
    endloop
  endfacet
  facet normal 0.000000 0.000000 -1.000000
    outer loop
      vertex -17.000000 60.000000 -0.000000
      vertex 0.000000 100.000000 0.000000
      vertex -17.000000 42.000000 -0.000000
    endloop
  endfacet
  facet normal -0.000000 -1.000000 0.000000
    outer loop
      vertex -8.000000 0.000000 4.000000
      vertex 0.000000 0.000000 0.000000
      vertex -0.000000 0.000000 10.000000
    endloop
  endfacet
  facet normal 0.000000 -1.000000 0.000000
    outer loop
      vertex -30.000000 0.000000 -0.000000
      vertex 0.000000 0.000000 0.000000
      vertex -8.000000 0.000000 4.000000
    endloop
  endfacet
  facet normal 0.000000 -1.000000 0.000000
    outer loop
      vertex -10.000000 0.000000 4.000000
      vertex -10.000000 0.000000 10.000000
      vertex -30.000000 0.000000 -0.000000
    endloop
  endfacet
  facet normal 0.000000 -1.000000 0.000000
    outer loop
      vertex -30.000000 0.000000 -0.000000
      vertex -8.000000 0.000000 4.000000
      vertex -10.000000 0.000000 4.000000
    endloop
  endfacet
  facet normal -0.000000 -1.000000 0.000000
    outer loop
      vertex -30.000000 0.000000 10.000000
      vertex -30.000000 0.000000 -0.000000
      vertex -10.000000 0.000000 10.000000
    endloop
  endfacet
  facet normal -0.000000 -1.000000 0.000000
    outer loop
      vertex -8.000000 0.000000 10.000000
      vertex -8.000000 0.000000 4.000000
      vertex -0.000000 0.000000 10.000000
    endloop
  endfacet
  facet normal 1.000000 0.000000 0.000000
    outer loop
      vertex -0.000000 0.000000 10.000000
      vertex 0.000000 0.000000 0.000000
      vertex 0.000000 100.000000 0.000000
    endloop
  endfacet
  facet normal 1.000000 -0.000000 0.000000
    outer loop
      vertex -0.000000 100.000000 10.000000
      vertex -0.000000 0.000000 10.000000
      vertex 0.000000 100.000000 0.000000
    endloop
  endfacet
  facet normal 0.000000 1.000000 0.000000
    outer loop
      vertex -8.000000 100.000000 10.000000
      vertex -0.000000 100.000000 10.000000
      vertex -8.000000 100.000000 4.000000
    endloop
  endfacet
  facet normal 0.000000 1.000000 0.000000
    outer loop
      vertex -10.000000 100.000000 10.000000
      vertex -30.000000 100.000000 -0.000000
      vertex -30.000000 100.000000 10.000000
    endloop
  endfacet
  facet normal -0.000000 1.000000 0.000000
    outer loop
      vertex 0.000000 100.000000 0.000000
      vertex -30.000000 100.000000 -0.000000
      vertex -10.000000 100.000000 4.000000
    endloop
  endfacet
  facet normal 0.000000 1.000000 0.000000
    outer loop
      vertex 0.000000 100.000000 0.000000
      vertex -10.000000 100.000000 4.000000
      vertex -8.000000 100.000000 4.000000
    endloop
  endfacet
  facet normal 0.000000 1.000000 0.000000
    outer loop
      vertex 0.000000 100.000000 0.000000
      vertex -8.000000 100.000000 4.000000
      vertex -0.000000 100.000000 10.000000
    endloop
  endfacet
  facet normal -0.000000 1.000000 0.000000
    outer loop
      vertex -10.000000 100.000000 4.000000
      vertex -30.000000 100.000000 -0.000000
      vertex -10.000000 100.000000 10.000000
    endloop
  endfacet
  facet normal -1.000000 -0.000000 -0.000000
    outer loop
      vertex -30.000000 82.000000 -0.000000
      vertex -30.000000 82.000000 10.000000
      vertex -30.000000 100.000000 -0.000000
    endloop
  endfacet
  facet normal -1.000000 0.000000 0.000000
    outer loop
      vertex -30.000000 100.000000 -0.000000
      vertex -30.000000 82.000000 10.000000
      vertex -30.000000 100.000000 10.000000
    endloop
  endfacet
  facet normal 0.000000 -1.000000 0.000000
    outer loop
      vertex -17.000000 82.000000 10.000000
      vertex -30.000000 82.000000 10.000000
      vertex -30.000000 82.000000 -0.000000
    endloop
  endfacet
  facet normal 0.000000 -1.000000 0.000000
    outer loop
      vertex -17.000000 82.000000 -0.000000
      vertex -17.000000 82.000000 10.000000
      vertex -30.000000 82.000000 -0.000000
    endloop
  endfacet
  facet normal -1.000000 0.000000 0.000000
    outer loop
      vertex -17.000000 82.000000 10.000000
      vertex -17.000000 82.000000 -0.000000
      vertex -17.000000 80.000000 10.000000
    endloop
  endfacet
  facet normal -1.000000 0.000000 0.000000
    outer loop
      vertex -17.000000 80.000000 10.000000
      vertex -17.000000 82.000000 -0.000000
      vertex -17.000000 80.000000 -0.000000
    endloop
  endfacet
  facet normal 0.000000 1.000000 -0.000000
    outer loop
      vertex -30.000000 80.000000 10.000000
      vertex -17.000000 80.000000 10.000000
      vertex -30.000000 80.000000 -0.000000
    endloop
  endfacet
  facet normal 0.000000 1.000000 0.000000
    outer loop
      vertex -30.000000 80.000000 -0.000000
      vertex -17.000000 80.000000 10.000000
      vertex -17.000000 80.000000 -0.000000
    endloop
  endfacet
  facet normal -1.000000 -0.000000 -0.000000
    outer loop
      vertex -30.000000 62.000000 -0.000000
      vertex -30.000000 62.000000 10.000000
      vertex -30.000000 80.000000 -0.000000
    endloop
  endfacet
  facet normal -1.000000 0.000000 0.000000
    outer loop
      vertex -30.000000 80.000000 -0.000000
      vertex -30.000000 62.000000 10.000000
      vertex -30.000000 80.000000 10.000000
    endloop
  endfacet
  facet normal 0.000000 -1.000000 0.000000
    outer loop
      vertex -17.000000 62.000000 10.000000
      vertex -30.000000 62.000000 10.000000
      vertex -30.000000 62.000000 -0.000000
    endloop
  endfacet
  facet normal 0.000000 -1.000000 0.000000
    outer loop
      vertex -17.000000 62.000000 -0.000000
      vertex -17.000000 62.000000 10.000000
      vertex -30.000000 62.000000 -0.000000
    endloop
  endfacet
  facet normal -1.000000 0.000000 0.000000
    outer loop
      vertex -17.000000 62.000000 10.000000
      vertex -17.000000 62.000000 -0.000000
      vertex -17.000000 60.000000 10.000000
    endloop
  endfacet
  facet normal -1.000000 0.000000 0.000000
    outer loop
      vertex -17.000000 60.000000 10.000000
      vertex -17.000000 62.000000 -0.000000
      vertex -17.000000 60.000000 -0.000000
    endloop
  endfacet
  facet normal 0.000000 1.000000 -0.000000
    outer loop
      vertex -30.000000 60.000000 10.000000
      vertex -17.000000 60.000000 10.000000
      vertex -30.000000 60.000000 -0.000000
    endloop
  endfacet
  facet normal 0.000000 1.000000 0.000000
    outer loop
      vertex -30.000000 60.000000 -0.000000
      vertex -17.000000 60.000000 10.000000
      vertex -17.000000 60.000000 -0.000000
    endloop
  endfacet
  facet normal -1.000000 -0.000000 -0.000000
    outer loop
      vertex -30.000000 42.000000 -0.000000
      vertex -30.000000 42.000000 10.000000
      vertex -30.000000 60.000000 -0.000000
    endloop
  endfacet
  facet normal -1.000000 0.000000 0.000000
    outer loop
      vertex -30.000000 60.000000 -0.000000
      vertex -30.000000 42.000000 10.000000
      vertex -30.000000 60.000000 10.000000
    endloop
  endfacet
  facet normal 0.000000 -1.000000 0.000000
    outer loop
      vertex -17.000000 42.000000 10.000000
      vertex -30.000000 42.000000 10.000000
      vertex -30.000000 42.000000 -0.000000
    endloop
  endfacet
  facet normal 0.000000 -1.000000 0.000000
    outer loop
      vertex -17.000000 42.000000 -0.000000
      vertex -17.000000 42.000000 10.000000
      vertex -30.000000 42.000000 -0.000000
    endloop
  endfacet
  facet normal -1.000000 0.000000 0.000000
    outer loop
      vertex -17.000000 42.000000 10.000000
      vertex -17.000000 42.000000 -0.000000
      vertex -17.000000 40.000000 10.000000
    endloop
  endfacet
  facet normal -1.000000 0.000000 0.000000
    outer loop
      vertex -17.000000 40.000000 10.000000
      vertex -17.000000 42.000000 -0.000000
      vertex -17.000000 40.000000 -0.000000
    endloop
  endfacet
  facet normal 0.000000 1.000000 -0.000000
    outer loop
      vertex -30.000000 40.000000 10.000000
      vertex -17.000000 40.000000 10.000000
      vertex -30.000000 40.000000 -0.000000
    endloop
  endfacet
  facet normal 0.000000 1.000000 0.000000
    outer loop
      vertex -30.000000 40.000000 -0.000000
      vertex -17.000000 40.000000 10.000000
      vertex -17.000000 40.000000 -0.000000
    endloop
  endfacet
  facet normal -1.000000 -0.000000 -0.000000
    outer loop
      vertex -30.000000 22.000000 -0.000000
      vertex -30.000000 22.000000 10.000000
      vertex -30.000000 40.000000 -0.000000
    endloop
  endfacet
  facet normal -1.000000 0.000000 0.000000
    outer loop
      vertex -30.000000 40.000000 -0.000000
      vertex -30.000000 22.000000 10.000000
      vertex -30.000000 40.000000 10.000000
    endloop
  endfacet
  facet normal 0.000000 -1.000000 0.000000
    outer loop
      vertex -17.000000 22.000000 10.000000
      vertex -30.000000 22.000000 10.000000
      vertex -30.000000 22.000000 -0.000000
    endloop
  endfacet
  facet normal 0.000000 -1.000000 0.000000
    outer loop
      vertex -17.000000 22.000000 -0.000000
      vertex -17.000000 22.000000 10.000000
      vertex -30.000000 22.000000 -0.000000
    endloop
  endfacet
  facet normal -1.000000 0.000000 0.000000
    outer loop
      vertex -17.000000 22.000000 10.000000
      vertex -17.000000 22.000000 -0.000000
      vertex -17.000000 20.000000 10.000000
    endloop
  endfacet
  facet normal -1.000000 0.000000 0.000000
    outer loop
      vertex -17.000000 20.000000 10.000000
      vertex -17.000000 22.000000 -0.000000
      vertex -17.000000 20.000000 -0.000000
    endloop
  endfacet
  facet normal 0.000000 1.000000 -0.000000
    outer loop
      vertex -30.000000 20.000000 10.000000
      vertex -17.000000 20.000000 10.000000
      vertex -30.000000 20.000000 -0.000000
    endloop
  endfacet
  facet normal 0.000000 1.000000 0.000000
    outer loop
      vertex -30.000000 20.000000 -0.000000
      vertex -17.000000 20.000000 10.000000
      vertex -17.000000 20.000000 -0.000000
    endloop
  endfacet
  facet normal -1.000000 -0.000000 -0.000000
    outer loop
      vertex -30.000000 0.000000 -0.000000
      vertex -30.000000 0.000000 10.000000
      vertex -30.000000 20.000000 -0.000000
    endloop
  endfacet
  facet normal -1.000000 0.000000 0.000000
    outer loop
      vertex -30.000000 20.000000 -0.000000
      vertex -30.000000 0.000000 10.000000
      vertex -30.000000 20.000000 10.000000
    endloop
  endfacet
  facet normal 0.000000 0.000000 1.000000
    outer loop
      vertex -17.000000 62.000000 10.000000
      vertex -10.000000 0.000000 10.000000
      vertex -10.000000 100.000000 10.000000
    endloop
  endfacet
  facet normal -0.000000 0.000000 1.000000
    outer loop
      vertex -17.000000 20.000000 10.000000
      vertex -30.000000 20.000000 10.000000
      vertex -30.000000 0.000000 10.000000
    endloop
  endfacet
  facet normal -0.000000 0.000000 1.000000
    outer loop
      vertex -30.000000 100.000000 10.000000
      vertex -30.000000 82.000000 10.000000
      vertex -10.000000 100.000000 10.000000
    endloop
  endfacet
  facet normal -0.000000 0.000000 1.000000
    outer loop
      vertex -30.000000 82.000000 10.000000
      vertex -17.000000 82.000000 10.000000
      vertex -10.000000 100.000000 10.000000
    endloop
  endfacet
  facet normal 0.000000 -0.000000 1.000000
    outer loop
      vertex -17.000000 80.000000 10.000000
      vertex -17.000000 62.000000 10.000000
      vertex -10.000000 100.000000 10.000000
    endloop
  endfacet
  facet normal 0.000000 -0.000000 1.000000
    outer loop
      vertex -17.000000 82.000000 10.000000
      vertex -17.000000 80.000000 10.000000
      vertex -10.000000 100.000000 10.000000
    endloop
  endfacet
  facet normal -0.000000 0.000000 1.000000
    outer loop
      vertex -30.000000 62.000000 10.000000
      vertex -17.000000 62.000000 10.000000
      vertex -17.000000 80.000000 10.000000
    endloop
  endfacet
  facet normal -0.000000 0.000000 1.000000
    outer loop
      vertex -30.000000 42.000000 10.000000
      vertex -17.000000 42.000000 10.000000
      vertex -17.000000 60.000000 10.000000
    endloop
  endfacet
  facet normal 0.000000 0.000000 1.000000
    outer loop
      vertex -17.000000 60.000000 10.000000
      vertex -10.000000 0.000000 10.000000
      vertex -17.000000 62.000000 10.000000
    endloop
  endfacet
  facet normal 0.000000 0.000000 1.000000
    outer loop
      vertex -17.000000 42.000000 10.000000
      vertex -10.000000 0.000000 10.000000
      vertex -17.000000 60.000000 10.000000
    endloop
  endfacet
  facet normal 0.000000 0.000000 1.000000
    outer loop
      vertex -17.000000 40.000000 10.000000
      vertex -10.000000 0.000000 10.000000
      vertex -17.000000 42.000000 10.000000
    endloop
  endfacet
  facet normal 0.000000 0.000000 1.000000
    outer loop
      vertex -17.000000 22.000000 10.000000
      vertex -10.000000 0.000000 10.000000
      vertex -17.000000 40.000000 10.000000
    endloop
  endfacet
  facet normal -0.000000 0.000000 1.000000
    outer loop
      vertex -30.000000 22.000000 10.000000
      vertex -17.000000 22.000000 10.000000
      vertex -17.000000 40.000000 10.000000
    endloop
  endfacet
  facet normal 0.000000 0.000000 1.000000
    outer loop
      vertex -17.000000 20.000000 10.000000
      vertex -10.000000 0.000000 10.000000
      vertex -17.000000 22.000000 10.000000
    endloop
  endfacet
  facet normal -0.000000 -0.000000 1.000000
    outer loop
      vertex -30.000000 0.000000 10.000000
      vertex -10.000000 0.000000 10.000000
      vertex -17.000000 20.000000 10.000000
    endloop
  endfacet
  facet normal -0.000000 0.000000 1.000000
    outer loop
      vertex -17.000000 40.000000 10.000000
      vertex -30.000000 40.000000 10.000000
      vertex -30.000000 22.000000 10.000000
    endloop
  endfacet
  facet normal -0.000000 0.000000 1.000000
    outer loop
      vertex -17.000000 60.000000 10.000000
      vertex -30.000000 60.000000 10.000000
      vertex -30.000000 42.000000 10.000000
    endloop
  endfacet
  facet normal -0.000000 0.000000 1.000000
    outer loop
      vertex -17.000000 80.000000 10.000000
      vertex -30.000000 80.000000 10.000000
      vertex -30.000000 62.000000 10.000000
    endloop
  endfacet
  facet normal 1.000000 0.000000 0.000000
    outer loop
      vertex -10.000000 100.000000 4.000000
      vertex -10.000000 100.000000 10.000000
      vertex -10.000000 0.000000 10.000000
    endloop
  endfacet
  facet normal 1.000000 0.000000 0.000000
    outer loop
      vertex -10.000000 0.000000 4.000000
      vertex -10.000000 100.000000 4.000000
      vertex -10.000000 0.000000 10.000000
    endloop
  endfacet
  facet normal -0.000000 0.000000 1.000000
    outer loop
      vertex -8.000000 100.000000 4.000000
      vertex -10.000000 100.000000 4.000000
      vertex -10.000000 0.000000 4.000000
    endloop
  endfacet
  facet normal -0.000000 0.000000 1.000000
    outer loop
      vertex -8.000000 0.000000 4.000000
      vertex -8.000000 100.000000 4.000000
      vertex -10.000000 0.000000 4.000000
    endloop
  endfacet
  facet normal -1.000000 0.000000 -0.000000
    outer loop
      vertex -8.000000 100.000000 10.000000
      vertex -8.000000 100.000000 4.000000
      vertex -8.000000 0.000000 10.000000
    endloop
  endfacet
  facet normal -1.000000 0.000000 -0.000000
    outer loop
      vertex -8.000000 0.000000 10.000000
      vertex -8.000000 100.000000 4.000000
      vertex -8.000000 0.000000 4.000000
    endloop
  endfacet
  facet normal -0.000000 0.000000 1.000000
    outer loop
      vertex -8.000000 0.000000 10.000000
      vertex -0.000000 0.000000 10.000000
      vertex -0.000000 100.000000 10.000000
    endloop
  endfacet
  facet normal -0.000000 0.000000 1.000000
    outer loop
      vertex -8.000000 100.000000 10.000000
      vertex -8.000000 0.000000 10.000000
      vertex -0.000000 100.000000 10.000000
    endloop
  endfacet
endsolid OpenSCAD_Model
