<?xml version="1.0" encoding="UTF-8" standalone="no"?>
<!-- Created with Inkscape (http://www.inkscape.org/) -->

<svg
   xmlns:dc="http://purl.org/dc/elements/1.1/"
   xmlns:cc="http://creativecommons.org/ns#"
   xmlns:rdf="http://www.w3.org/1999/02/22-rdf-syntax-ns#"
   xmlns:svg="http://www.w3.org/2000/svg"
   xmlns="http://www.w3.org/2000/svg"
   xmlns:sodipodi="http://sodipodi.sourceforge.net/DTD/sodipodi-0.dtd"
   xmlns:inkscape="http://www.inkscape.org/namespaces/inkscape"
   width="225"
   height="224.28572"
   id="svg2"
   version="1.1"
   inkscape:version="0.48.2 r9819"
   sodipodi:docname="modular.svg">
  <defs
     id="defs4" />
  <sodipodi:namedview
     id="base"
     pagecolor="#ffffff"
     bordercolor="#666666"
     borderopacity="1.0"
     inkscape:pageopacity="0.0"
     inkscape:pageshadow="2"
     inkscape:zoom="1.4"
     inkscape:cx="100.55929"
     inkscape:cy="98.530262"
     inkscape:document-units="px"
     inkscape:current-layer="layer1"
     showgrid="false"
     inkscape:window-width="1360"
     inkscape:window-height="744"
     inkscape:window-x="0"
     inkscape:window-y="24"
     inkscape:window-maximized="1"
     fit-margin-top="0"
     fit-margin-left="0"
     fit-margin-right="0"
     fit-margin-bottom="0">
    <inkscape:grid
       type="xygrid"
       id="grid2985"
       empspacing="5"
       visible="true"
       enabled="true"
       snapvisiblegridlinesonly="true" />
  </sodipodi:namedview>
  <metadata
     id="metadata7">
    <rdf:RDF>
      <cc:Work
         rdf:about="">
        <dc:format>image/svg+xml</dc:format>
        <dc:type
           rdf:resource="http://purl.org/dc/dcmitype/StillImage" />
        <dc:title></dc:title>
      </cc:Work>
    </rdf:RDF>
  </metadata>
  <g
     inkscape:label="Layer 1"
     inkscape:groupmode="layer"
     id="layer1"
     transform="translate(-137.14285,-400.93362)">
    <g
       id="g3794"
       transform="translate(-0.35714722,0.71430468)">
      <path
         inkscape:connector-curvature="0"
         id="path2987"
         d="m 150,612.36218 0,-50 20,0 0,20 20,0 0,30 z"
         style="fill:#f1f96c;fill-opacity:1;stroke:#000000;stroke-width:10px;stroke-linecap:butt;stroke-linejoin:miter;stroke-opacity:1" />
      <path
         inkscape:connector-curvature="0"
         id="path2989"
         d="m 290,612.36218 0,-30 40,0 0,-20 20,0 0,50 z"
         style="fill:#b90aff;fill-opacity:1;stroke:#000000;stroke-width:10px;stroke-linecap:butt;stroke-linejoin:miter;stroke-opacity:1" />
      <path
         inkscape:connector-curvature="0"
         id="path3759"
         d="m 150,462.36218 0,-50 60,0 c 0,0 0,30 0,30 l -20,0 0,20 z"
         style="fill:#fdc9c9;fill-opacity:1;stroke:#000000;stroke-width:10px;stroke-linecap:butt;stroke-linejoin:miter;stroke-opacity:1" />
      <path
         inkscape:connector-curvature="0"
         id="path3761"
         d="m 220,532.36218 c 0,0 0,-20 0,-20 l 20,0 0,-20 20,0 20,0 0,40 z"
         style="fill:none;stroke:#000000;stroke-width:10px;stroke-linecap:butt;stroke-linejoin:miter;stroke-opacity:1" />
      <path
         inkscape:connector-curvature="0"
         id="path3763"
         d="m 310,412.36218 40,0 c 0,0 0,50 0,50 l -20,0 0,-20 -20,0 z"
         style="fill:#8cf3fb;fill-opacity:1;stroke:#000000;stroke-width:10px;stroke-linecap:butt;stroke-linejoin:miter;stroke-opacity:1" />
      <path
         inkscape:connector-curvature="0"
         id="path3765"
         d="m 185.25126,560.03985 14.14214,-14.14214 -3.53553,-3.53553 14.14213,0 0,14.14213 -3.53553,-3.53553 -14.14214,14.14214 z"
         style="fill:#000000;fill-opacity:1;stroke:none" />
      <path
         inkscape:transform-center-y="-12.87437"
         inkscape:transform-center-x="-12.87437"
         style="fill:#000000;fill-opacity:1;stroke:none"
         d="m 314.74874,464.68451 -14.14214,14.14214 3.53553,3.53553 -14.14213,0 0,-14.14213 3.53553,3.53553 14.14214,-14.14214 z"
         id="path3767"
         inkscape:connector-curvature="0" />
      <path
         inkscape:connector-curvature="0"
         id="path3769"
         d="M 307.67767,567.11092 293.53553,552.96878 290,556.50431 l 0,-14.14213 14.14213,0 -3.53553,3.53553 14.14214,14.14214 z"
         style="fill:#000000;fill-opacity:1;stroke:none"
         inkscape:transform-center-x="-12.87437"
         inkscape:transform-center-y="12.87437" />
      <path
         inkscape:transform-center-y="-12.87437"
         inkscape:transform-center-x="12.87437"
         style="fill:#000000;fill-opacity:1;stroke:none"
         d="m 207.32233,472.61344 14.14214,14.14214 3.53553,-3.53553 0,14.14213 -14.14213,0 3.53553,-3.53553 -14.14214,-14.14214 z"
         id="path3771"
         inkscape:connector-curvature="0" />
    </g>
  </g>
</svg>
