<?xml version="1.0" encoding="UTF-8" standalone="no"?>
<!-- Created with Inkscape (http://www.inkscape.org/) -->

<svg
   xmlns:dc="http://purl.org/dc/elements/1.1/"
   xmlns:cc="http://creativecommons.org/ns#"
   xmlns:rdf="http://www.w3.org/1999/02/22-rdf-syntax-ns#"
   xmlns:svg="http://www.w3.org/2000/svg"
   xmlns="http://www.w3.org/2000/svg"
   xmlns:sodipodi="http://sodipodi.sourceforge.net/DTD/sodipodi-0.dtd"
   xmlns:inkscape="http://www.inkscape.org/namespaces/inkscape"
   width="447.14285"
   height="471.42856"
   id="svg5098"
   version="1.1"
   inkscape:version="0.48.2 r9819"
   sodipodi:docname="easytouse.svg">
  <defs
     id="defs5100" />
  <sodipodi:namedview
     id="base"
     pagecolor="#ffffff"
     bordercolor="#666666"
     borderopacity="1.0"
     inkscape:pageopacity="0.0"
     inkscape:pageshadow="2"
     inkscape:zoom="0.7"
     inkscape:cx="193.49688"
     inkscape:cy="356.8209"
     inkscape:document-units="px"
     inkscape:current-layer="layer1"
     showgrid="false"
     inkscape:window-width="1360"
     inkscape:window-height="744"
     inkscape:window-x="0"
     inkscape:window-y="24"
     inkscape:window-maximized="1"
     fit-margin-top="0"
     fit-margin-left="0"
     fit-margin-right="0"
     fit-margin-bottom="0">
    <inkscape:grid
       type="xygrid"
       id="grid5668"
       empspacing="5"
       visible="true"
       enabled="true"
       snapvisiblegridlinesonly="true" />
  </sodipodi:namedview>
  <metadata
     id="metadata5103">
    <rdf:RDF>
      <cc:Work
         rdf:about="">
        <dc:format>image/svg+xml</dc:format>
        <dc:type
           rdf:resource="http://purl.org/dc/dcmitype/StillImage" />
        <dc:title />
      </cc:Work>
    </rdf:RDF>
  </metadata>
  <g
     inkscape:label="Layer 1"
     inkscape:groupmode="layer"
     id="layer1"
     transform="translate(-163.78408,-177.46807)">
    <g
       id="g5672"
       transform="translate(159.6041,-165.66502)">
      <path
         inkscape:connector-curvature="0"
         id="path5666"
         d="m 110.17857,644.86218 c 0.71429,0 69.64286,2.67857 69.64286,2.67857 l 26.42857,67.5 -77.85714,15.17857 z"
         style="fill:#ababab;fill-opacity:1;stroke:none" />
      <path
         sodipodi:nodetypes="sssssssssssssccccc"
         inkscape:connector-curvature="0"
         id="path5653"
         d="m 53.055517,516.50224 c -25.875967,-0.0778 -41.293765,20.08129 -37.913381,50.99603 2.980254,27.25543 22.979682,17.91194 24.242373,48.46905 1.262691,30.55712 -8.989258,53.31738 -4.041552,81.84139 4.947706,28.52401 7.308357,52.81695 39.393077,64.64371 32.084726,11.82676 27.145976,60.85347 153.563136,30.31552 48.9328,-11.82044 43.61402,6.74867 81.80804,-11.12089 38.19402,-17.86956 58.53748,-39.82818 50.51794,-74.7446 -8.01954,-34.91641 -21.91005,-31.44137 -27.26506,-57.57742 -5.35502,-26.13605 14.86217,-5.39524 3.01491,-40.41719 -11.84727,-35.02195 -119.96638,-58.90862 -155.5625,-79.8125 -35.59612,-20.90387 -35.24464,2.96104 -67.17036,-3.03219 -9.97679,-1.87288 -48.82482,-9.52553 -60.586623,-9.56091 z m 41.913235,36.8431 135.343748,26.25 68.6875,116.1875 -168.6875,31.3125 z"
         style="fill:#000000;fill-opacity:1;stroke:#000000;stroke-width:1px;stroke-linecap:butt;stroke-linejoin:miter;stroke-opacity:1" />
      <path
         inkscape:connector-curvature="0"
         id="path5670"
         d="M 180,647.36218 232.84016,576.3278"
         style="fill:none;stroke:#ababab;stroke-width:1px;stroke-linecap:butt;stroke-linejoin:miter;stroke-opacity:1" />
      <path
         sodipodi:nodetypes="cccccccc"
         inkscape:connector-curvature="0"
         id="path5651"
         d="m 272.74117,473.0397 -52.02286,79.80205 -29.79949,-24.74874 3.03046,102.02541 105.3084,-17.17258 -32.32489,-25.00129 54.04316,-66.67006 z"
         style="fill:#000000;fill-opacity:1;stroke:#ffffff;stroke-width:10;stroke-linecap:butt;stroke-linejoin:miter;stroke-miterlimit:4;stroke-opacity:1;stroke-dasharray:none" />
    </g>
    <g
       transform="translate(159.6041,-165.66502)"
       id="g4422">
      <path
         style="font-size:medium;font-style:normal;font-variant:normal;font-weight:normal;font-stretch:normal;text-indent:0;text-align:start;text-decoration:none;line-height:normal;letter-spacing:normal;word-spacing:normal;text-transform:none;direction:ltr;block-progression:tb;writing-mode:lr-tb;text-anchor:start;baseline-shift:baseline;color:#000000;fill:#ffffff;fill-opacity:1;fill-rule:nonzero;stroke:none;stroke-width:10;marker:none;visibility:visible;display:inline;overflow:visible;enable-background:accumulate;font-family:Sans;-inkscape-font-specification:Sans"
         d="m 272.28125,361.3125 c -1.4766,0.0966 -2.89299,0.88743 -3.75,2.09375 -17.99759,25.34988 -38.02896,59.6228 -49.40625,79.59375 -0.10789,0.20158 -0.20194,0.41056 -0.28125,0.625 -5.75522,14.32568 -1.77708,31.27456 7.84375,47.90625 9.62083,16.63169 25.12202,33.33692 44.15625,47.6875 17.63472,13.29543 38.98734,22.46102 58.625,26.15625 19.63766,3.69523 38.03054,2.27777 49,-8.40625 0.0641,-0.0608 0.12667,-0.12336 0.1875,-0.1875 22.36499,-24.34329 40.95541,-44.933 59.875,-67.65625 1.73465,-2.08707 1.30805,-5.60655 -0.875,-7.21875 l -162.0625,-119.625 c -0.94432,-0.69848 -2.14063,-1.04834 -3.3125,-0.96875 z"
         id="path4433"
         inkscape:connector-curvature="0"
         sodipodi:nodetypes="ccccssscccccc" />
      <path
         inkscape:connector-curvature="0"
         id="path5617"
         d="m 272.28125,361.3125 a 5.0005,5.0005 0 0 0 -3.75,2.09375 C 250.53366,388.75613 230.50229,423.02905 219.125,443 a 5.0005,5.0005 0 0 0 -0.28125,0.625 c -5.75522,14.32568 -1.77708,31.27456 7.84375,47.90625 9.62083,16.63169 25.12202,33.33692 44.15625,47.6875 17.63472,13.29543 38.98734,22.46102 58.625,26.15625 19.63766,3.69523 38.03054,2.27777 49,-8.40625 a 5.0005,5.0005 0 0 0 0.1875,-0.1875 c 22.36499,-24.34329 40.95541,-44.933 59.875,-67.65625 a 5.0005,5.0005 0 0 0 -0.875,-7.21875 l -162.0625,-119.625 a 5.0005,5.0005 0 0 0 -3.3125,-0.96875 z m 1.5625,12.09375 L 427.375,486.75 c -17.54033,20.87133 -35.02127,40.32829 -55.90625,63.0625 -0.0157,0.0171 -0.0468,0.0142 -0.0625,0.0312 -7.03378,6.79454 -22.18357,9.08892 -40.09375,5.71875 -17.95055,-3.37776 -38.18471,-12.06664 -54.46875,-24.34375 -18.12978,-13.66868 -32.76589,-29.58869 -41.5,-44.6875 -8.68253,-15.00963 -11.27608,-28.81713 -7.28125,-39 10.74377,-18.84875 29.04018,-49.96729 45.78125,-74.125 z"
         style="font-size:medium;font-style:normal;font-variant:normal;font-weight:normal;font-stretch:normal;text-indent:0;text-align:start;text-decoration:none;line-height:normal;letter-spacing:normal;word-spacing:normal;text-transform:none;direction:ltr;block-progression:tb;writing-mode:lr-tb;text-anchor:start;baseline-shift:baseline;color:#000000;fill:#000000;fill-opacity:1;fill-rule:nonzero;stroke:none;stroke-width:10;marker:none;visibility:visible;display:inline;overflow:visible;enable-background:accumulate;font-family:Sans;-inkscape-font-specification:Sans" />
      <g
         id="g4418">
        <path
           inkscape:connector-curvature="0"
           id="path3908"
           d="m 380.40744,389.63575 c -47.09428,-34.58818 -97.62881,-46.07022 -112.66407,-25.59863 -15.03527,20.4716 11.04067,65.25576 58.13494,99.84392 47.09427,34.58818 97.6288,46.07022 112.66407,25.59863 15.03526,-20.4716 -11.04068,-65.25576 -58.13494,-99.84392 z"
           style="font-size:medium;font-style:normal;font-variant:normal;font-weight:normal;font-stretch:normal;text-indent:0;text-align:start;text-decoration:none;line-height:normal;letter-spacing:normal;word-spacing:normal;text-transform:none;direction:ltr;block-progression:tb;writing-mode:lr-tb;text-anchor:start;baseline-shift:baseline;color:#000000;fill:#ffffff;fill-opacity:1;fill-rule:nonzero;stroke:none;stroke-width:10.03555298;marker:none;visibility:visible;display:inline;overflow:visible;enable-background:accumulate;font-family:Sans;-inkscape-font-specification:Sans"
           sodipodi:nodetypes="sssss" />
        <path
           style="font-size:medium;font-style:normal;font-variant:normal;font-weight:normal;font-stretch:normal;text-indent:0;text-align:start;text-decoration:none;line-height:normal;letter-spacing:normal;word-spacing:normal;text-transform:none;direction:ltr;block-progression:tb;writing-mode:lr-tb;text-anchor:start;baseline-shift:baseline;color:#000000;fill:#000000;fill-opacity:1;fill-rule:nonzero;stroke:none;stroke-width:10.03555298;marker:none;visibility:visible;display:inline;overflow:visible;enable-background:accumulate;font-family:Sans;-inkscape-font-specification:Sans"
           d="m 380.40744,389.63575 c -47.09428,-34.58818 -97.62881,-46.07022 -112.66407,-25.59863 -15.03527,20.4716 11.04067,65.25576 58.13494,99.84392 47.09427,34.58818 97.6288,46.07022 112.66407,25.59863 15.03526,-20.4716 -11.04068,-65.25576 -58.13494,-99.84392 z m -3.81514,5.19457 c 40.63324,29.84291 62.97264,68.20972 50.0001,85.87275 -12.97252,17.66303 -56.2657,7.8263 -96.89895,-22.0166 -40.63325,-29.84291 -62.97264,-68.20972 -50.00011,-85.87275 12.97253,-17.66303 56.26571,-7.8263 96.89896,22.0166 z"
           id="path5623"
           inkscape:connector-curvature="0" />
      </g>
    </g>
  </g>
</svg>
