<?xml version="1.0" encoding="UTF-8" standalone="no"?>
<!-- Created with Inkscape (http://www.inkscape.org/) -->

<svg
   xmlns:dc="http://purl.org/dc/elements/1.1/"
   xmlns:cc="http://creativecommons.org/ns#"
   xmlns:rdf="http://www.w3.org/1999/02/22-rdf-syntax-ns#"
   xmlns:svg="http://www.w3.org/2000/svg"
   xmlns="http://www.w3.org/2000/svg"
   xmlns:sodipodi="http://sodipodi.sourceforge.net/DTD/sodipodi-0.dtd"
   xmlns:inkscape="http://www.inkscape.org/namespaces/inkscape"
   width="231.40625"
   height="369.28125"
   id="svg2"
   version="1.1"
   inkscape:version="0.48.3.1 r9886"
   sodipodi:docname="New document 1">
  <defs
     id="defs4" />
  <sodipodi:namedview
     id="base"
     pagecolor="#ffffff"
     bordercolor="#666666"
     borderopacity="1.0"
     inkscape:pageopacity="0.0"
     inkscape:pageshadow="2"
     inkscape:zoom="1.4"
     inkscape:cx="205.78117"
     inkscape:cy="219.69355"
     inkscape:document-units="px"
     inkscape:current-layer="layer1"
     showgrid="false"
     fit-margin-top="0"
     fit-margin-left="0"
     fit-margin-right="0"
     fit-margin-bottom="0"
     inkscape:window-width="1600"
     inkscape:window-height="830"
     inkscape:window-x="0"
     inkscape:window-y="25"
     inkscape:window-maximized="1" />
  <metadata
     id="metadata7">
    <rdf:RDF>
      <cc:Work
         rdf:about="">
        <dc:format>image/svg+xml</dc:format>
        <dc:type
           rdf:resource="http://purl.org/dc/dcmitype/StillImage" />
        <dc:title></dc:title>
      </cc:Work>
    </rdf:RDF>
  </metadata>
  <g
     inkscape:label="Layer 1"
     inkscape:groupmode="layer"
     id="layer1"
     transform="translate(-0.9375,-0.700893)">
    <g
       id="g4371">
      <g
         transform="translate(-200,-22.142857)"
         id="g4366">
        <path
           style="fill:#000000"
           d="m 302.69108,249.3072 c 0,-3.33167 -0.14644,-3.48405 -2.75,-2.86167 -1.5125,0.36156 -3.63665,1.11403 -4.72033,1.67215 -1.08368,0.55813 -8.39618,1.23292 -16.25,1.49955 -13.89668,0.47178 -14.27967,0.42968 -14.27967,-1.56977 0,-1.13 0.5625,-2.28152 1.25,-2.55893 0.6875,-0.27741 -0.8875,-0.53991 -3.5,-0.58333 -4.85514,-0.0807 -6.0465,-1.38245 -3.55,-3.87895 0.93333,-0.93333 0.82222,-1.2 -0.5,-1.2 -2.43775,0 -2.14705,-3.72334 0.35265,-4.51671 1.63936,-0.52031 1.81605,-0.93657 0.87756,-2.06739 -2.17738,-2.62357 0.69671,-4.4159 7.08113,-4.4159 4.64227,0 5.73936,-0.30735 5.62755,-1.57658 -0.0764,-0.86712 1.51092,-2.54547 3.52736,-3.72967 l 3.66624,-2.15308 4.65201,3.34081 4.652,3.34082 3.63244,-2.58452 c 3.16595,-2.2526 3.83344,-2.40261 5.19763,-1.16804 0.87604,0.79281 4.19569,1.5516 7.53959,1.72337 4.84199,0.24872 6.04012,0.65203 6.3211,2.12777 0.22431,1.17813 -0.38998,2.01351 -1.74029,2.36663 -1.91838,0.50167 -2.08697,1.26335 -2.08697,9.42912 0,8.2167 0.15009,8.88337 2,8.88337 1.33333,0 2,0.66667 2,2 0,1.7037 -0.66667,2 -4.5,2 -4.48083,0 -4.5,-0.015 -4.5,-3.51905 z m 39.41719,-8.51443 c -5.45445,-5.51842 -9.91719,-10.41093 -9.91719,-10.87224 0,-0.46131 5.51514,-6.55649 12.25586,-13.54484 8.70982,-9.02979 12.02683,-13.11534 11.4643,-14.12053 -0.43536,-0.77794 -6.063,-6.74233 -12.50586,-13.25421 -6.44287,-6.51187 -11.7143,-12.32064 -11.7143,-12.90837 0,-0.58774 4.52201,-5.68003 10.04892,-11.31622 l 10.04892,-10.24761 3.69482,3.39875 c 2.03214,1.86931 7.83715,7.56125 12.9,12.64875 5.06286,5.0875 9.79872,9.25 10.52413,9.25 0.72542,0 6.0359,-4.75671 11.80108,-10.57047 5.76517,-5.81375 11.74003,-11.48393 13.27747,-12.60038 l 2.79535,-2.02991 9.95465,9.79498 c 5.47506,5.38723 9.95466,10.27666 9.95466,10.86538 0,0.58873 -5.625,6.68191 -12.5,13.5404 -6.875,6.85849 -12.5,13.11307 -12.5,13.89906 0,0.78599 5.66696,7.15642 12.59325,14.15651 10.72855,10.84288 12.44389,13.00264 11.5846,14.58594 -1.68838,3.11093 -16.61037,17.0436 -19.10017,17.83383 -2.03571,0.64611 -3.97235,-0.89466 -15.17826,-12.07569 l -12.84481,-12.81631 -12.92541,13.20833 c -7.10897,7.26458 -13.12102,13.20833 -13.36011,13.20833 -0.23909,0 -4.89744,-4.51507 -10.3519,-10.03348 z m -135.41719,-4.44739 c 0,-7.47079 0.0171,-7.51913 2.65499,-7.51913 2.45692,0 2.53846,-0.13055 1.09303,-1.75 -1.71202,-1.91812 -4.20443,-10.12692 -3.33791,-10.99344 0.86588,-0.86588 3.27593,1.57126 4.51722,4.56799 0.62837,1.51704 2.60537,3.54605 4.39332,4.50893 3.38337,1.82206 6.26747,5.41173 5.20316,6.47604 -0.33812,0.33813 -1.4943,0.0655 -2.56929,-0.60585 -2.50562,-1.56479 -2.47327,-0.74092 0.11357,2.89196 2.90636,4.08159 6.03982,3.76786 11.36158,-1.13757 l 4.38499,-4.04194 8.34267,0.29194 8.34267,0.29194 0,7 0,7 -22.25,0.26913 -22.25,0.26913 0,-7.51913 z m 17,-3.60083 c 0,-2.33466 7.54851,-10.11819 11.60467,-11.96598 5.24719,-2.39038 5.39533,-2.39412 5.39533,-0.13646 0,1.0604 -1.57688,2.70212 -3.7903,3.94612 -2.08466,1.17165 -5.24557,3.72951 -7.02425,5.68415 -3.14112,3.45186 -6.18545,4.6686 -6.18545,2.47217 z m -8.53006,-10.1364 c -4.05533,-4.81947 -7.09773,-11.55411 -5.80405,-12.84779 0.7532,-0.7532 1.98241,0.18271 4.19951,3.1975 2.63502,3.58307 3.1346,3.90695 3.1346,2.03215 0,-2.32083 4.31692,-11.62356 5.82698,-12.55683 1.19886,-0.74093 5.42302,8.58056 5.42302,11.96701 0,4.64089 -4.82219,6.78959 -9.56574,4.26234 -2.05377,-1.0942 -2.09465,-1.04963 -0.68426,0.74607 0.825,1.05039 2.0625,2.50621 2.75,3.23515 1.80259,1.91126 1.53852,3.1825 -0.66111,3.1825 -1.0511,0 -3.12963,-1.44814 -4.61895,-3.2181 z m 8.8536,-9.38114 c -0.38475,-1.00267 -0.92908,-1.19522 -1.56919,-0.55511 -1.14518,1.14518 -0.0365,3.44675 1.27107,2.63864 0.48798,-0.30159 0.62213,-1.23918 0.29812,-2.08353 z m 0.0576,11.15018 c -0.32256,-0.8406 1.03662,-3.17042 3.23692,-5.54852 2.08613,-2.25471 4.72514,-5.76513 5.86447,-7.80094 2.47586,-4.42401 7.2201,-6.03599 5.9841,-2.03326 -1.462,4.73462 -3.73543,8.13749 -8.29344,12.41365 -5.09124,4.77641 -5.95381,5.15348 -6.79205,2.96907 z m 65.13698,-1.52157 c -1.27374,-2.06096 2.53738,-6.96034 6.92354,-8.90055 2.44082,-1.07969 5.0232,-2.90037 5.73863,-4.04595 1.49475,-2.39348 3.81968,-2.77689 3.81968,-0.62992 0,3.25858 -2.53807,6.62935 -6.40379,8.50477 -2.25292,1.09297 -4.66252,2.89961 -5.35468,4.01475 -1.33167,2.14545 -3.7203,2.67992 -4.72338,1.0569 z m -5.2084,-3.01971 c -0.6208,-1.64468 -2.24905,-3.41628 -3.61833,-3.93688 -4.63834,-1.7635 -7.19635,-8.14843 -4.78791,-11.9509 1.19627,-1.88867 2.72169,-0.72377 3.41422,2.60731 0.34854,1.67649 1.75801,3.4299 3.56876,4.43963 2.10361,1.17304 3.32103,2.88814 4.09786,5.77308 1.64489,6.10864 -0.56852,8.64742 -2.6746,3.06776 z m 5.69025,-5.92787 c 0,-2.42013 1.56944,-4.33165 4.98866,-6.076 2.75143,-1.40368 3.90689,-2.73352 4.36492,-5.02368 0.78907,-3.94537 2.64642,-2.94742 2.64642,1.42192 0,3.45356 -1.96804,5.89337 -5.65969,7.01642 -1.18783,0.36135 -2.70544,1.31458 -3.37245,2.11828 -1.3627,1.64195 -2.96786,1.93566 -2.96786,0.54306 z m -3.77749,-7.63849 c -1.36176,-0.95381 -2.22219,-2.59979 -2.22169,-4.25 0.001,-3.78083 3.51939,-12.64001 5.1458,-12.95747 1.42001,-0.27717 4.90621,9.35288 4.87178,13.45747 -0.0157,1.86988 -3.26579,5.3067 -5.0184,5.3067 -0.30524,0 -1.55511,-0.70052 -2.77749,-1.5567 z m 3.77749,-6.00232 c 0,-0.85746 -0.45734,-1.27636 -1.01631,-0.9309 -0.55897,0.34546 -0.75741,1.04702 -0.44098,1.55902 0.85724,1.38704 1.45729,1.12841 1.45729,-0.62812 z m -66.77682,-8.6178 c -0.96038,-0.96038 -0.7176,-14.31028 0.35596,-19.57318 0.58816,-2.88335 2.52496,-2.86556 5.05691,0.0464 1.82928,2.10385 3.37487,2.40416 18.43034,3.58106 20.4607,1.59943 22.91568,1.94947 25.56079,3.64451 3.01119,1.92964 3.84068,6.115 1.82241,9.19528 l -1.64168,2.50555 -12.65395,-0.65788 c -6.95968,-0.36183 -16.70396,-1.07916 -21.65396,-1.59407 -4.95,-0.5149 -9.30718,-0.94399 -9.68261,-0.95352 -0.37544,-0.01 -0.95507,0.8411 -1.28807,1.89029 -0.7388,2.32777 -2.92252,3.29918 -4.30614,1.91556 z m 28.4159,-9.04822 c 0.26343,-0.42623 -3.7858,-0.77496 -8.99828,-0.77496 -5.21247,0 -10.18903,-0.27314 -11.05901,-0.60699 -1.05112,-0.40335 -1.58179,-0.0498 -1.58179,1.05395 0,1.46084 1.27462,1.62733 10.58007,1.38195 5.81903,-0.15345 10.79559,-0.62772 11.05901,-1.05395 z m 37.26223,-11.68932 c -1.29291,-1.84781 -3.05619,-2.06901 -22.79416,-2.8596 l -21.39285,-0.85686 -2.27417,-2.64389 c -2.70919,-3.14962 -2.28089,-5.91878 1.35817,-8.78127 2.38562,-1.87653 3.95168,-2.00093 23.9639,-1.9035 19.23974,0.0937 21.54013,-0.0717 22.68003,-1.63062 0.76164,-1.04161 1.92574,-1.48267 2.91316,-1.10376 1.34389,0.51569 1.62638,2.05394 1.54493,8.41248 -0.11788,9.20242 -0.92333,12.66213 -3.04285,13.07031 -0.85517,0.16469 -2.18544,-0.60179 -2.95616,-1.70329 z m -2.65131,-9.74792 c -0.6875,-0.27741 -1.8125,-0.27741 -2.5,0 -0.6875,0.27741 -0.125,0.50439 1.25,0.50439 1.375,0 1.9375,-0.22698 1.25,-0.50439 z m 60.75,-30.33772 0,-3 29.5,0 29.5,0 0,3 0,3 -29.5,0 -29.5,0 0,-3 z m -56.45758,-3.95572 c -1.60413,-1.67436 -3.43551,-3.04428 -4.06974,-3.04428 -0.63423,0 -3.56323,-1.31796 -6.50889,-2.92881 l -5.35575,-2.92881 -4.01685,3.17881 c -3.67217,2.90603 -4.63522,3.17881 -11.22278,3.17881 -6.53758,0 -7.63948,-0.30562 -11.88037,-3.29509 -3.06266,-2.15891 -5.07333,-2.98059 -5.83125,-2.38301 -0.63623,0.50165 -3.85679,1.90318 -7.15679,3.1145 -3.3,1.21133 -7.19301,3.33775 -8.65113,4.72537 -2.81286,2.67688 -5.61724,2.81375 -6.92986,0.33823 -6.42174,-12.11101 -6.05249,-14 2.73668,-14 3.79891,0 6.89041,-0.74977 10.37755,-2.51685 4.25733,-2.15734 4.96676,-2.93644 4.96676,-5.45444 0,-2.67952 -0.68086,-3.26227 -7.75,-6.633317 -5.81383,-2.77242 -8.94837,-3.6721 -12.54678,-3.60117 -4.14121,0.0816 -4.94644,-0.23393 -5.89185,-2.30888 -0.84922,-1.86384 -0.76198,-2.91774 0.38859,-4.69438 0.81602,-1.26003 1.78842,-3.52846 2.1609,-5.04096 0.53485,-2.17178 1.25146,-2.74532 3.40819,-2.72776 1.50202,0.0122 3.85595,0.92486 5.23095,2.02808 1.375,1.10321 3.81184,2.97678 5.4152,4.16349 l 2.9152,2.15764 -0.58294,-2.22915 c -0.32061,-1.22604 -0.17753,-3.64274 0.31797,-5.37045 0.73494,-2.56256 0.40023,-4.16465 -1.81673,-8.69597 -3.95619,-8.086163 -3.80361,-15.497373 0.49599,-24.090833 4.59925,-9.19235 9.85765,-12.946449 20.50798,-14.641169 20.84059,-3.31622 35.3653,3.960739 40.23131,20.156119 1.5649,5.20839 1.04926,11.68763 -1.55189,19.500003 -1.59839,4.80065 -1.94735,15 -0.51322,15 0.61479,0 3.29604,-1.8 5.95835,-4 4.8767,-4.02988 6.26661,-4.5815 8.15038,-3.23469 1.78405,1.27552 4.66281,8.85109 4.31049,11.34324 -0.28522,2.01748 -1.04178,2.47607 -4.83809,2.93257 -5.78543,0.6957 -18.28326,5.509407 -20.41244,7.862137 -4.32076,4.77438 4.85635,11.09674 16.10728,11.09674 4.83068,0 6.04742,0.35764 7.13354,2.09679 1.13527,1.81786 0.99767,2.58278 -1.03431,5.75 -1.28908,2.00927 -2.82799,4.55321 -3.41979,5.65321 -1.7285,3.21282 -5.5038,3.01802 -8.83186,-0.45572 z m 5.45758,-3.84428 c 0,-0.99 0.54,-2.34 1.2,-3 0.93333,-0.93333 0.19259,-1.2 -3.33333,-1.2 -2.49334,0 -4.80885,-0.27551 -5.14558,-0.61225 -1.56642,-1.56642 -10.73353,-5.17663 -11.2055,-4.41297 -0.29258,0.4734 2.6055,2.30688 6.44017,4.0744 3.83467,1.76751 7.7331,4.05452 8.66318,5.08224 2.13361,2.35761 3.38106,2.38292 3.38106,0.0686 z m -72,-1.02906 c 0,-0.74196 2.10813,-1.7926 12.5,-6.2297 2.20357,-0.94088 2.55324,-1.38462 1.31713,-1.67149 -0.92557,-0.21479 -3.08727,0.33571 -4.80376,1.22334 -1.71649,0.88763 -5.27859,1.86942 -7.91577,2.18176 -4.62452,0.5477 -4.75585,0.65211 -3.69624,2.93871 1.06951,2.30796 2.59864,3.22438 2.59864,1.55738 z m 44.66018,-4.72531 c 3.76518,-2.87185 6.34807,-7.22064 6.32298,-10.64597 -0.0155,-2.11447 -0.18139,-2.04278 -2.06016,0.89026 -3.19835,4.9931 -9.79102,7.6905 -17.16254,7.02208 -6.9338,-0.62874 -10.42629,-2.71825 -13.00891,-7.78308 -1.67185,-3.27871 -1.74851,-3.31493 -1.75,-0.8268 -0.002,4.06815 3.98892,8.90716 9.99845,12.12189 4.55617,2.43726 6.25664,2.84163 9.90913,2.35639 2.43127,-0.323 5.90825,-1.7292 7.75105,-3.13477 z m -2.98118,-17.646517 c 1.92778,-0.69709 3.321,-1.89063 3.321,-2.84501 0,-2.26668 2.88192,-4.60025 6.67647,-5.40611 3.43437,-0.72937 6.55248,-4.50658 6.55247,-7.93751 0,-1.16077 -0.70676,-3.91048 -1.57058,-6.11048 -1.30106,-3.31359 -1.57875,-3.57099 -1.6182,-1.5 -0.0716,3.75985 -3.6119,8.85441 -6.68984,9.62693 -3.4615,0.86877 -7.10369,-1.13722 -10.07781,-5.55053 -2.97413,-4.41331 -2.87245,-5.63031 0.77524,-9.27799 2.7192,-2.719213 3.53207,-2.993163 7.54058,-2.541343 2.47106,0.27852 5.31339,1.249 6.3163,2.15662 1.98769,1.798843 1.93262,1.957633 3.93086,-11.33374 0.36548,-2.43102 1.18882,-4.59329 1.82965,-4.80504 1.79388,-0.59276 2.5989,3.35688 1.95325,9.58324 -0.39114,3.77192 -0.28242,4.97897 0.328,3.64185 0.50217,-1.1 0.94467,-4.4994 0.98333,-7.55422 0.0575,-4.54514 -0.4646,-6.36192 -2.87385,-10 -4.42549,-6.68272 -5.14408,-7.36324 -10.48458,-9.92915 -10.5731,-5.079989 -29.05275,-3.38132 -35.71724,3.28317 -4.54957,4.54957 -8.48079,13.26167 -5.46131,12.10299 1.08182,-0.41514 1.69394,0.23901 2.11134,2.25629 0.3233,1.56251 1.29673,5.37341 2.16319,8.46868 l 1.57536,5.627763 2.62869,-1.371603 c 4.26805,-2.22699 9.84786,-1.75565 12.67414,1.070633 1.35,1.35 2.45454,3.17234 2.45454,4.04966 0,4.54337 -6.31771,11.49579 -10.4463,11.49579 -2.73676,0 -6.3365,-3.28642 -7.15,-6.52768 -1.12779,-4.49346 -3.4037,-2.1836 -3.4037,3.45448 0,3.19955 2.79431,6.08129 7.31838,7.54739 2.10329,0.6816 3.70996,2.17991 4.78817,4.46524 0.89249,1.89168 2.47112,3.77256 3.50808,4.17971 3.00287,1.179067 12.43853,0.991097 16.06437,-0.32003 z m -13.08376,-3.5372 c -2.51504,-2.51504 2.02341,-15.26191 5.43392,-15.26191 2.42332,0 4.9234,3.19198 6.43562,8.21671 1.8804,6.24808 0.809,7.64043 -5.87926,7.64043 -2.96727,0 -5.6629,-0.26785 -5.99028,-0.59523 z m 44.84995,-5.26191 c 2.57917,0 3.21283,-1.4144 1.70123,-3.79733 -0.66407,-1.04686 -1.05334,-1.01975 -2.01617,0.1404 -0.65627,0.79075 -3.54155,2.41116 -6.41173,3.60091 -7.51211,3.11391 -9.71852,4.29004 -9.71852,5.18044 0,0.43256 3.12534,-0.54348 6.94519,-2.16898 3.81985,-1.62549 8.09485,-2.95544 9.5,-2.95544 z m -63.57989,3.53197 c -0.25742,-0.25742 -2.24492,-1.20471 -4.41666,-2.1051 -4.07988,-1.69147 -4.19831,-1.07614 -0.21635,1.12404 2.19557,1.21313 5.58222,1.93027 4.63301,0.98106 z m -8.94863,-3.85581 c -0.22917,-0.17811 -1.85583,-1.31713 -3.61481,-2.53116 l -3.19813,-2.20733 -1.15953,2.1666 c -1.0619,1.98417 -0.96032,2.11659 1.20644,1.57277 1.30129,-0.3266 3.03724,-0.16944 3.85767,0.34926 1.34945,0.85315 3.90448,1.42406 2.90836,0.64986 z m 6.45833,-25.551163 c -0.35139,-1.75694 -0.84734,-2.986 -1.1021,-2.73123 -0.25477,0.25477 -0.15258,1.87757 0.2271,3.60623 0.37968,1.72866 0.87562,2.95771 1.10211,2.73123 0.22648,-0.22648 0.12428,-1.84929 -0.22711,-3.60623 z m 147.625,61.39424 c 0,-0.37242 2.06476,-2.7419 4.58836,-5.2655 4.65539,-4.65538 6.41164,-7.77302 6.41164,-11.3817 0,-1.30377 -0.60792,-1.93592 -1.75,-1.81974 -3.73017,0.37944 -4.72179,0.0195 -3.45,-1.2523 1.75921,-1.75921 1.53682,-6.799997 -0.3,-6.799997 -0.825,0 -1.5,0.626857 -1.5,1.393007 0,1.89087 -2.7071,2.81265 -3.34884,1.1403 -0.2829,-0.73722 -0.27913,-2.23994 0.008,-3.339367 0.28751,-1.09942 -0.0428,-4.63033 -0.73393,-7.84645 l -1.25631,-5.84749 -1.22323,7.64004 c -0.67278,4.20202 -1.70018,8.477017 -2.28311,9.499997 -0.95759,1.68046 -1.17079,1.54631 -2.20906,-1.39004 -0.63204,-1.787497 -1.78015,-3.249997 -2.55135,-3.249997 -1.6311,0 -1.76555,1.55309 -0.48485,5.600777 0.50453,1.59457 1.2012,4.18889 1.54815,5.76516 l 0.63083,2.86593 -2.99282,-2.36593 c -1.64605,-1.30127 -3.01772,-3.15344 -3.04815,-4.11594 -0.0304,-0.9625 -0.73033,-1.75 -1.55533,-1.75 -1.13333,0 -1.5,1.22222 -1.5,5 0,3.6071 0.38806,5 1.39301,5 1.34822,0 3.09558,2.70291 2.75954,4.26861 -0.0907,0.42274 0.96283,1.28247 2.34125,1.91052 1.37841,0.62804 2.5062,1.51967 2.5062,1.98139 0,0.46171 0.675,0.83948 1.5,0.83948 0.825,0 1.5,0.675 1.5,1.5 0,1.15152 -1.27778,1.5 -5.5,1.5 -3.15398,0 -5.5,-0.44525 -5.5,-1.04384 0,-0.57411 -0.5625,-0.93268 -1.25,-0.79683 -2.22493,0.43966 -7.28125,-2.91229 -8.78536,-5.82402 -0.80555,-1.55942 -2.08028,-3.48309 -2.83272,-4.27482 -0.75245,-0.79173 -1.80897,-2.70423 -2.34783,-4.25 -0.53886,-1.54577 -1.55184,-2.81049 -2.25107,-2.81049 -1.33831,0 -2.50349,-5.09228 -2.52201,-11.022147 -0.008,-2.45616 -0.95384,-4.66598 -3.12622,-7.30146 -1.71337,-2.07861 -2.86266,-4.03185 -2.55398,-4.34053 0.92301,-0.92301 10.62451,1.76232 12.25406,3.39186 0.8307,0.83071 1.80373,1.21701 2.16229,0.85846 1.10845,-1.10846 -1.63233,-11.93484 -3.74565,-14.79569 -2.74943,-3.721983 -2.51658,-4.790493 1.04394,-4.790493 1.93438,0 3.97965,0.93419 5.60607,2.560613 1.40833,1.40833 2.82225,2.29895 3.14204,1.97916 1.44849,-1.44848 0.36856,-13.281373 -1.62359,-17.789773 l -2.0989,-4.75 3.88774,0 c 2.68797,0 4.80463,0.77151 6.85882,2.5 1.6341,1.375 3.24362,2.5 3.57673,2.5 0.3331,0 0.60564,-4.6699 0.60564,-10.37755 0,-8.00455 0.343,-10.662229 1.5,-11.622449 0.825,-0.68469 1.5,-1.67193 1.5,-2.19387 0,-1.02992 2.50082,-3.80613 3.42857,-3.80613 0.31429,0 0.57143,1.73248 0.57143,3.84996 0,2.61686 0.89462,5.099109 2.79315,7.749999 4.11033,5.73919 6.20685,10.73865 6.20685,14.80117 0,1.97938 0.45,3.59887 1,3.59887 0.55,0 1,-1.0882 1,-2.41821 0,-6.40996 2.89165,-6.67467 6.01586,-0.5507 1.06187,2.08143 2.48913,3.97057 3.17169,4.19809 0.86784,0.28928 1.24102,3.17369 1.24102,9.59225 0,5.048213 0.30869,9.178573 0.68597,9.178573 0.37729,0 1.22015,-2.3625 1.87303,-5.25 2.19844,-9.723043 1.9199,-9.286653 4.36712,-6.842053 1.86679,1.8648 2.18958,3.50291 2.48633,12.617543 0.3277,10.06523 1.42471,13.24827 2.74834,7.97451 0.3451,-1.375 1.25367,-2.5 2.01905,-2.5 2.04389,0 1.95002,13.29872 -0.10841,15.35714 -0.825,0.824997 -1.5,2.213247 -1.5,3.084997 0,2.10752 -1.73087,5.11227 -6.08181,10.55786 -1.97748,2.475 -4.13388,5.5125 -4.79199,6.75 -0.65811,1.2375 -1.85573,2.25 -2.66138,2.25 -0.80565,0 -1.46482,0.43417 -1.46482,0.96482 0,0.53065 -0.7875,1.37907 -1.75,1.88539 -2.2167,1.16609 -14.25,2.57549 -14.25,1.66903 z m -0.66927,-65.89025 c -0.15753,-4.46774 -0.79809,-6.53589 -1.71766,-5.54566 -0.21281,0.22917 -0.71085,2.82142 -1.10675,5.76055 -0.65631,4.87237 -0.55599,5.31045 1.13693,4.96493 1.52886,-0.31203 1.82686,-1.22675 1.68748,-5.17982 z"
           id="path3134"
           inkscape:connector-curvature="0" />
        <path
           style="fill:#000000"
           d="m 267.27124,387.33657 c -0.0245,-0.825 1.85711,-10.27536 4.18126,-21.0008 l 4.22572,-19.50079 -11.51021,0.81405 c -10.22981,0.7235 -37.83738,0.1937 -38.77519,-0.74411 -0.19833,-0.19833 1.24356,-3.74105 3.2042,-7.8727 2.79863,-5.89756 5.11297,-8.94546 10.76811,-14.18125 5.63913,-5.22097 18.66213,-14.82131 22.69863,-16.73305 0.32673,-0.15474 1.92779,-2.94731 3.55792,-6.2057 9.10007,-18.18968 33.94251,-31.59433 58.49623,-31.56378 10.02152,0.0125 17.63365,1.53306 23.83051,4.76037 3.38872,1.76484 4.05518,1.80808 7.70939,0.50019 5.11276,-1.82992 18.72615,-1.96905 29,-0.2964 7.96796,1.29725 22.5,6.5502 22.5,8.13317 0,1.43962 -18.02642,16.7359 -29.66543,25.17255 -10.40376,7.54126 -11.01771,8.17125 -9,9.2352 4.67647,2.4659 34.22405,20.70882 35.16543,21.71142 1.23252,1.31268 2.75793,2.11569 -18.5,-9.7388 -9.625,-5.36738 -18.18263,-10.34812 -19.01696,-11.06831 -1.27598,-1.10143 -2.30851,-0.81491 -6.5,1.8037 -8.22741,5.14002 -26.36863,13.49031 -36.42357,16.76553 -10.0278,3.26639 -29.45895,7.45853 -39.79002,8.58442 -3.4268,0.37346 -6.0367,0.99267 -5.79978,1.37601 0.36938,0.59767 -8.62169,37.48115 -9.86805,40.48107 -0.24405,0.5874 -0.46373,0.39301 -0.48819,-0.43199 z m 7.61574,-79.60417 c -0.3323,-0.33229 -1.1948,-0.36781 -1.91667,-0.0789 -0.79773,0.31922 -0.56078,0.55618 0.60417,0.60416 1.05416,0.0434 1.64479,-0.19293 1.3125,-0.52522 z m 11,-1 c -0.3323,-0.33229 -1.1948,-0.36781 -1.91667,-0.0789 -0.79773,0.31922 -0.56078,0.55618 0.60417,0.60416 1.05416,0.0434 1.64479,-0.19293 1.3125,-0.52522 z m -2.55791,-4.05082 c 2.08934,-1.89083 2.4404,-5.89831 0.57874,-6.60662 -0.6875,-0.26157 -2.27309,-0.0953 -3.52352,0.36949 -2.38919,0.88807 -4.29591,4.51891 -3.48809,6.64212 0.67523,1.77472 4.27473,1.54811 6.43287,-0.40499 z m 41.85726,-7.35941 c 3.28431,-1.65791 5.97148,-3.23939 5.97148,-3.51439 0,-0.44788 -11.89791,5.21458 -12.91667,6.14731 -1.23725,1.13277 1.66487,0.0326 6.94519,-2.63292 z m -12.43328,-0.49061 c 1.32269,-2.01867 1.40046,-2.79524 0.40061,-4 -2.53261,-3.0516 -10.99585,-0.77337 -10.99585,2.96 0,4.15297 8.03854,4.94202 10.59524,1.04 z m 28.17011,-9.26896 c 1.50406,-1.27854 0.14715,-0.66372 -3.01535,1.36626 -3.1625,2.02998 -5.75,3.8776 -5.75,4.10583 0,0.67038 5.79611,-2.94805 8.76535,-5.47209 z m -4.76535,-1.21288 c 2.4238,-1.54512 -0.11353,-4.46234 -4.18687,-4.81371 -4.24537,-0.36622 -6.79531,1.91217 -4.81313,4.30056 1.39222,1.67752 6.69885,1.98009 9,0.51315 z m 10.12756,-2.76315 c 1.24387,-1.58606 1.2085,-1.62143 -0.37756,-0.37756 -1.66575,1.30637 -2.19548,2.12756 -1.37244,2.12756 0.20765,0 0.99515,-0.7875 1.75,-1.75 z m -48.46974,76.92551 c -0.77172,-11.29346 -0.56163,-14.41266 0.87404,-12.97698 0.29252,0.29252 0.40502,6.10502 0.25,12.91666 l -0.28186,12.38481 z m 60.34218,-21.09623 c -5.225,-4.87866 -9.15,-9.22981 -8.72222,-9.66923 0.42778,-0.43942 1.58014,0.0761 2.56082,1.14551 0.98067,1.06944 5.09422,5.43194 9.14122,9.69444 4.047,4.2625 7.16963,7.73865 6.93918,7.72478 -0.23045,-0.0139 -4.694,-4.01684 -9.919,-8.8955 z"
           id="path3592"
           inkscape:connector-curvature="0"
           sodipodi:nodetypes="cscssssssssssssssssssssscccccccccccsssssssssssssssssssssssssssscssscscs" />
        <rect
           style="fill:none;stroke:#000000;stroke-width:0.90102535;stroke-opacity:1"
           id="rect3596"
           width="230.50108"
           height="368.39133"
           x="201.39438"
           y="23.290752" />
      </g>
    </g>
  </g>
</svg>
