<?xml version="1.0" encoding="UTF-8" standalone="no"?>
<!-- Created with Inkscape (http://www.inkscape.org/) -->

<svg
   xmlns:dc="http://purl.org/dc/elements/1.1/"
   xmlns:cc="http://creativecommons.org/ns#"
   xmlns:rdf="http://www.w3.org/1999/02/22-rdf-syntax-ns#"
   xmlns:svg="http://www.w3.org/2000/svg"
   xmlns="http://www.w3.org/2000/svg"
   xmlns:sodipodi="http://sodipodi.sourceforge.net/DTD/sodipodi-0.dtd"
   xmlns:inkscape="http://www.inkscape.org/namespaces/inkscape"
   width="520.00006"
   height="394.28571"
   id="svg2"
   version="1.1"
   inkscape:version="0.48.2 r9819"
   sodipodi:docname="distributed.svg">
  <defs
     id="defs4">
    <clipPath
       id="clipPath3036"
       clipPathUnits="userSpaceOnUse">
      <path
         id="path3038"
         d="M 0,2834.67 0,0 l 2834.64,0 0,2834.67 -2834.64,0 z"
         inkscape:connector-curvature="0" />
    </clipPath>
  </defs>
  <sodipodi:namedview
     id="base"
     pagecolor="#ffffff"
     bordercolor="#666666"
     borderopacity="1.0"
     inkscape:pageopacity="0.0"
     inkscape:pageshadow="2"
     inkscape:zoom="0.7"
     inkscape:cx="292.81013"
     inkscape:cy="277.48528"
     inkscape:document-units="px"
     inkscape:current-layer="layer1"
     showgrid="false"
     inkscape:window-width="1360"
     inkscape:window-height="744"
     inkscape:window-x="0"
     inkscape:window-y="24"
     inkscape:window-maximized="1"
     fit-margin-top="0"
     fit-margin-left="0"
     fit-margin-right="0"
     fit-margin-bottom="0">
    <inkscape:grid
       type="xygrid"
       id="grid2985"
       empspacing="5"
       visible="true"
       enabled="true"
       snapvisiblegridlinesonly="true" />
  </sodipodi:namedview>
  <metadata
     id="metadata7">
    <rdf:RDF>
      <cc:Work
         rdf:about="">
        <dc:format>image/svg+xml</dc:format>
        <dc:type
           rdf:resource="http://purl.org/dc/dcmitype/StillImage" />
        <dc:title />
      </cc:Work>
    </rdf:RDF>
  </metadata>
  <g
     inkscape:label="Layer 1"
     inkscape:groupmode="layer"
     id="layer1"
     transform="translate(-161.78738,-358.36994)">
    <g
       id="g5087">
      <path
         sodipodi:nodetypes="cccccccccccccc"
         inkscape:connector-curvature="0"
         id="path5074"
         d="m 519.87989,453.70658 -162.28614,22.85592 -155.24309,108.74712 11.46385,126.59181 302.0567,-23.07197 134.65212,-188.0138 z m -5.34576,7.74107 91.07564,54.79727 -123.81819,128.83439 -226.07013,26.84192 c -8.77932,-27.51296 -34.2442,-99.52075 -26.33795,-82.53889 L 361.625,482.75 z"
         style="fill:#000000;fill-opacity:1;stroke:#ffffff;stroke-width:9.5;stroke-linecap:butt;stroke-linejoin:miter;stroke-miterlimit:4;stroke-opacity:1;stroke-dasharray:none" />
      <path
         sodipodi:type="arc"
         style="fill:#e0e0e0;fill-opacity:1;stroke:#000000;stroke-width:3.64487982;stroke-miterlimit:4;stroke-opacity:1;stroke-dasharray:none"
         id="path3917"
         sodipodi:cx="240"
         sodipodi:cy="537.36218"
         sodipodi:rx="15"
         sodipodi:ry="15"
         d="m 255,537.36218 c 0,8.28427 -6.71573,15 -15,15 -8.28427,0 -15,-6.71573 -15,-15 0,-8.28427 6.71573,-15 15,-15 8.28427,0 15,6.71573 15,15 z"
         transform="matrix(1.94365,-0.75606277,0.37803148,0.97182521,-150.871,115.9925)" />
      <path
         sodipodi:type="arc"
         style="fill:#e0e0e0;fill-opacity:1;stroke:#000000;stroke-width:3.64487982;stroke-miterlimit:4;stroke-opacity:1;stroke-dasharray:none"
         id="path3909"
         sodipodi:cx="240"
         sodipodi:cy="537.36218"
         sodipodi:rx="15"
         sodipodi:ry="15"
         d="m 255,537.36218 c 0,8.28427 -6.71573,15 -15,15 -8.28427,0 -15,-6.71573 -15,-15 0,-8.28427 6.71573,-15 15,-15 8.28427,0 15,6.71573 15,15 z"
         transform="matrix(2.7675248,-1.0765428,0.53827155,1.3837628,-734.15541,102.79303)" />
      <g
         transform="translate(-52.440745,-52.28266)"
         id="g3921">
        <path
           sodipodi:type="arc"
           style="fill:#feffff;fill-opacity:1;stroke:none"
           id="path3919"
           sodipodi:cx="400"
           sodipodi:cy="552.36218"
           sodipodi:rx="140"
           sodipodi:ry="140"
           d="m 540,552.36218 c 0,77.31987 -62.68014,140 -140,140 -77.31986,0 -140,-62.68013 -140,-140 0,-77.31986 62.68014,-140 140,-140 77.31986,0 140,62.68014 140,140 z"
           transform="translate(44.359525,9.8562532)" />
        <path
           style="fill:#000000"
           d="m 435.51561,693.29852 c -39.48659,-2.61581 -75.2131,-22.62958 -98.48206,-55.16898 -11.86232,-16.58833 -19.7685,-36.36958 -22.75677,-56.93736 -0.96049,-6.61091 -1.21556,-10.49488 -1.22735,-18.68868 -0.0163,-11.34156 0.76518,-18.8928 3.01641,-29.14543 10.25576,-46.7074 46.56824,-84.95293 92.82939,-97.77107 7.85609,-2.17678 15.20474,-3.49435 24.50678,-4.39394 4.49491,-0.43469 18.22021,-0.36226 23.02711,0.12153 13.96757,1.40575 26.23704,4.42472 38.20611,9.40082 42.00125,17.4619 72.15474,55.53766 79.36209,100.21308 2.1095,13.07597 2.22702,27.3306 0.33281,40.37493 -3.22315,22.19626 -11.98925,42.99723 -25.55255,60.63329 -22.08323,28.71439 -54.17915,46.90216 -89.67864,50.81815 -7.00834,0.77311 -16.73516,0.99733 -23.58333,0.54366 z m 15.68514,-2.64598 c 6.63873,-0.38617 12.60051,-1.16208 19.0224,-2.47571 3.05897,-0.62572 8.3779,-1.91851 8.72826,-2.12144 0.0894,-0.0518 -0.41115,-0.55351 -1.11242,-1.11493 -1.48563,-1.18931 -2.94368,-2.54896 -2.94368,-2.74499 0,-0.14971 2.2052,-0.88542 2.65389,-0.88542 0.15327,0 0.79524,0.43196 1.42659,0.95989 1.723,1.44081 3.39333,2.59986 3.7467,2.59986 0.56094,0 5.45036,-1.71922 9.59593,-3.37413 2.22564,-0.88847 6.39939,-2.79024 9.275,-4.22613 7.46336,-3.72674 12.96457,-7.10123 19.34344,-11.86542 l 3.05923,-2.28482 0.14341,-1.19452 c 0.0789,-0.65697 0.14432,-2.0111 0.14537,-3.00914 l 0.002,-1.81463 1.11293,-0.79956 c 0.61213,-0.43976 1.21284,-0.79956 1.33491,-0.79956 0.13489,0 0.22197,1.01208 0.22197,2.57928 l 0,2.57928 1.1492,-0.96213 c 2.67099,-2.23631 7.84426,-7.23877 10.57078,-10.22182 7.04942,-7.71266 11.95929,-14.39562 17.28525,-23.52734 2.98992,-5.12641 3.90742,-6.9563 6.35799,-12.6806 5.79405,-13.53435 8.89121,-25.88331 10.27686,-40.97575 0.36347,-3.95882 0.36685,-15.9356 0.006,-20.02358 -0.40016,-4.52917 -1.03511,-9.36903 -1.70753,-13.01533 -0.67966,-3.68565 -1.95214,-9.39417 -2.02926,-9.1035 -0.0297,0.11227 -0.16223,1.60578 -0.29434,3.31891 -0.57652,7.47626 -2.38252,14.91468 -5.58413,22.99969 -1.3137,3.31752 -5.30834,11.44297 -5.67408,11.54163 -0.12935,0.0349 -0.52237,-0.53742 -0.87338,-1.27181 l -0.63818,-1.33525 1.80375,-3.7305 c 5.69929,-11.78722 8.3416,-22.14878 8.36374,-32.79738 l 0.009,-4.37114 -1.06996,-1.85842 c -2.98996,-5.19333 -8.3804,-12.74058 -12.60949,-17.65479 -4.49182,-5.21952 -10.81075,-11.19787 -16.17565,-15.30386 -2.2884,-1.7514 -6.70334,-4.83176 -6.92235,-4.82981 -0.0717,6.2e-4 -0.14412,1.8278 -0.16092,4.06034 -0.0732,9.73097 -2.38832,19.30362 -7.21594,29.83682 -0.77747,1.69634 -1.54849,3.13603 -1.71337,3.1993 -0.16491,0.0633 -0.57464,-0.14825 -0.91054,-0.47006 -0.33591,-0.32182 -0.71518,-0.58511 -0.84286,-0.58511 -0.12769,0 -0.41273,0.40047 -0.63346,0.88994 -0.39987,0.88678 -0.63902,1.07343 -0.87859,0.68577 -0.0694,-0.11228 -1.55205,-1.34734 -3.29479,-2.74457 -9.04736,-7.25372 -19.57251,-14.39913 -29.97792,-20.35167 -6.74102,-3.85629 -18.82905,-10.00046 -19.31464,-9.81734 -0.11499,0.0433 -1.11183,1.43042 -2.21522,3.08237 -3.72544,5.57762 -9.84259,12.20246 -15.35499,16.62934 -3.53064,2.83538 -3.26813,2.72478 -4.21647,1.77644 l -0.79988,-0.79987 -0.94065,0.64718 -0.94065,0.64719 -3.83932,-4.16614 c -6.63459,-7.19933 -15.65937,-16.56165 -21.31355,-22.11072 -5.25001,-5.15241 -11.17346,-10.67699 -11.61127,-10.82938 -0.24731,-0.0861 -0.32238,-0.53744 1.25087,7.5202 1.93207,9.89532 4.91883,23.18637 8.21575,36.55998 0.78461,3.18271 1.38267,5.85779 1.32901,5.94461 -0.0537,0.0868 -0.55776,0.28671 -1.12023,0.44418 -0.92922,0.26018 -1.01008,0.33648 -0.88492,0.83518 0.47168,1.87928 0.53452,1.75526 -1.13857,2.24699 -7.93565,2.33234 -14.66232,3.34602 -23.38531,3.52406 -3.33448,0.0681 -6.06269,0.14366 -6.06269,0.16799 0,0.0243 -0.54519,2.7895 -1.21152,6.14481 -2.50769,12.6274 -3.96314,24.0664 -4.58364,36.0247 -0.23798,4.58625 -0.22603,18.97217 0.016,19.2135 0.0641,0.064 1.86627,0.28984 4.00471,0.50193 5.2331,0.51901 15.87263,0.52021 21.57558,0.002 8.04222,-0.73017 16.24068,-2.13432 23.7164,-4.06193 2.19059,-0.56485 4.19665,-1.07414 4.45792,-1.13178 0.39586,-0.0873 0.52939,0.0563 0.80121,0.86183 0.34765,1.03023 0.44357,1.06754 1.95658,0.76088 l 0.7855,-0.1592 0.51987,1.6286 c 1.04067,3.26016 5.01418,14.66677 6.96129,19.98357 3.71326,10.13945 8.6217,22.14148 12.94748,31.65896 l 0.58625,1.28985 -0.72495,0.29354 c -1.92257,0.77847 -1.73144,0.93061 -3.40298,-2.70867 -5.60175,-12.19616 -11.69427,-27.8463 -17.28042,-44.38907 -1.83821,-5.44365 -2.30122,-6.60437 -2.59721,-6.51092 -0.19811,0.0625 -2.11226,0.55635 -4.25368,1.09735 -8.28385,2.09282 -15.81498,3.36131 -24.80699,4.17835 -5.91824,0.53775 -22.27595,0.27058 -24.64012,-0.40243 -0.3366,-0.0958 -0.38934,0.0528 -0.38934,1.09665 0,0.66411 0.15099,2.7483 0.33553,4.63153 1.69837,17.33114 5.98941,33.38548 12.59409,47.11915 0.96488,2.00636 1.75433,3.73339 1.75433,3.83785 0,0.10445 -0.43384,0.18991 -0.96409,0.18991 -0.53026,0 -1.02233,0.0582 -1.09349,0.12939 -0.0712,0.0712 0.0122,0.46842 0.1854,0.88278 0.51674,1.23674 0.47092,1.27986 -1.18698,1.11687 -13.80177,-1.35695 -26.05483,-4.72859 -36.08156,-9.92849 -1.39814,-0.72508 -2.57673,-1.28365 -2.6191,-1.24129 -0.14024,0.14024 3.56821,6.09556 5.71738,9.18139 2.18894,3.14295 3.12225,4.11314 7.46105,7.7558 11.44218,9.60638 25.03488,17.42347 39.26063,22.57864 2.5707,0.93156 4.01414,1.29941 7.10575,1.81082 2.13385,0.35297 4.10644,0.64175 4.38354,0.64175 0.27709,0 1.58481,0.44208 2.90604,0.9824 7.5214,3.07587 22.31795,4.69322 35.77486,3.91041 z m -27.36556,-4.54629 c -0.12236,-0.0509 -1.51055,-0.16043 -3.08485,-0.24341 l -2.86237,-0.15087 -1.8098,-1.57054 c -2.86167,-2.48332 -8.93525,-8.69114 -11.46728,-11.72074 -3.78024,-4.52305 -8.3288,-10.92579 -10.81731,-15.22688 l -0.63014,-1.08913 3.98918,0.15374 c 4.36015,0.16804 12.3553,-0.12114 18.11693,-0.65526 10.24723,-0.94997 21.65688,-3.11256 32.42912,-6.14662 2.23431,-0.62932 4.10024,-1.10341 4.1465,-1.05355 0.0463,0.0499 0.9005,1.72468 1.8983,3.72183 4.90965,9.82695 10.28589,18.50654 15.38709,24.8415 l 2.41291,2.99648 -1.8282,0.56259 c -7.44485,2.29108 -16.94683,4.17766 -25.8565,5.13374 -3.0845,0.33099 -19.42551,0.69588 -20.02358,0.44712 z m 50.55465,-9.30151 c -4.19114,-4.70969 -8.77513,-11.46036 -13.18106,-19.41127 -1.77133,-3.19652 -5.22462,-10.00416 -5.22462,-10.29957 0,-0.0997 0.72585,-0.41229 1.61301,-0.69462 2.94535,-0.93735 10.90198,-3.96463 14.90359,-5.67041 13.88335,-5.91815 27.25506,-13.39088 38.72542,-21.64157 1.07638,-0.77424 2.03346,-1.40772 2.12686,-1.40772 0.21383,0 2.09209,4.48283 3.79852,9.06585 3.04545,8.17938 4.99099,15.86114 5.92853,23.40838 0.5282,4.25207 0.97106,3.50911 -4.07729,6.84047 -12.67797,8.36612 -27.32267,15.80822 -40.78635,20.72672 -1.04899,0.38321 -2.01613,0.69676 -2.14922,0.69676 -0.13309,0 -0.88791,-0.72586 -1.67739,-1.61302 z m 52.50383,-29.71207 c -1.2048,-7.92573 -3.8514,-17.01823 -7.72441,-26.53767 -1.11638,-2.74396 -2.07918,-5.14091 -2.13951,-5.32657 -0.0741,-0.22791 0.7412,-1.01865 2.51035,-2.43473 7.0995,-5.68263 16.48906,-14.59976 21.6794,-20.58856 4.89242,-5.64507 9.64564,-11.95186 12.89605,-17.11102 l 1.62563,-2.58025 0.30907,0.72379 c 1.64069,3.84193 3.29879,9.2043 4.15567,13.43947 0.99377,4.91181 1.29842,8.56222 1.16688,13.98241 -0.15331,6.31809 -0.79282,10.29247 -2.59543,16.13011 -0.57503,1.86213 -0.90914,2.47056 -2.80831,5.11395 -7.72896,10.75773 -17.77402,21.05467 -28.24396,28.95219 -0.15505,0.11696 -0.43251,-1.13888 -0.83143,-3.76312 z m -14.33586,-41.05506 c -5.89912,-11.72136 -13.52899,-24.36851 -22.63524,-37.51984 l -3.76209,-5.43325 1.08533,-0.90234 c 0.59693,-0.49629 2.44242,-2.06391 4.1011,-3.48361 10.78022,-9.22702 20.19195,-20.25375 26.69875,-31.28015 l 1.20746,-2.04617 0.90384,0.79855 c 14.23476,12.57659 25.06694,25.83026 32.45606,39.71155 l 1.02881,1.93271 -1.76547,2.91784 c -8.15685,13.48114 -20.16036,26.88881 -34.23245,38.23688 -1.17987,0.95148 -2.24831,1.79094 -2.3743,1.86545 -0.13142,0.0777 -1.28732,-1.96721 -2.7118,-4.79762 z m -80.26544,-19.78392 c -1.44191,-4.24362 -5.99022,-19.29318 -8.76603,-29.00527 -3.1353,-10.96987 -8.03431,-29.16111 -8.03431,-29.83339 0,-0.1241 0.92609,-0.5552 2.05798,-0.95801 6.89359,-2.45328 14.96254,-6.47224 21.23412,-10.57624 l 2.48983,-1.62929 3.19639,3.60184 c 11.63238,13.1079 23.23816,27.33243 32.85465,40.26802 2.2883,3.07809 2.8896,4.02733 2.69763,4.25864 -0.37398,0.45062 -6.18456,4.46529 -9.577,6.61699 -10.49572,6.65702 -23.15609,12.70459 -34.55932,16.5082 -3.3974,1.13321 -3.45887,1.14602 -3.59394,0.74851 z m -47.04798,62.18432 c -7.02833,-15.21024 -10.66791,-30.15012 -12.42242,-50.99202 l -0.15815,-1.87865 -3.00353,-0.51655 c -11.3805,-1.95722 -22.86875,-6.21591 -31.23623,-11.57923 -0.84402,-0.541 -1.65695,-1.03059 -1.80653,-1.08798 -0.8899,-0.3415 -1.24792,17.4657 -0.47703,23.72682 1.29243,10.49704 3.80655,19.54195 8.14782,29.31291 l 1.36129,3.06387 2.04917,1.3297 c 2.56032,1.66136 8.38639,4.60925 11.61599,5.87748 5.51928,2.16737 12.44017,4.12096 18.24371,5.14971 2.67558,0.47427 8.03657,1.2528 8.93115,1.29701 0.43412,0.0214 0.32278,-0.30967 -1.24524,-3.70307 z m -40.58587,-6.00705 c -0.77824,-1.54922 -1.1959,-2.10577 -2.04532,-2.72543 -1.62838,-1.18798 -1.77412,-1.23953 -1.19257,-0.42183 0.89817,1.26287 3.98477,5.09399 4.10405,5.09399 0.0615,0 -0.32829,-0.87602 -0.86616,-1.94673 z m -4.22952,-8.98749 c -0.9328,-2.10924 -2.7926,-7.47616 -3.68531,-10.63488 -1.86705,-6.60633 -3.10371,-13.77107 -3.59257,-20.81414 -0.31339,-4.51501 -0.13349,-13.62254 0.34939,-17.6875 0.49401,-4.15881 0.64777,-3.68071 -1.84654,-5.74181 -5.55858,-4.59315 -10.94623,-11.11301 -14.07254,-17.02986 -0.57233,-1.08317 -1.09161,-1.88412 -1.15396,-1.77987 -0.0624,0.10424 -0.23969,1.62931 -0.39409,3.38905 -0.32795,3.73765 -0.19322,7.7387 0.44955,13.35128 1.72517,15.06379 5.53378,28.18365 12.12383,41.76412 2.43081,5.0093 3.53465,6.86788 5.86579,9.87648 1.45781,1.88147 6.21317,6.80031 6.39678,6.61669 0.053,-0.0529 -0.14521,-0.64225 -0.44033,-1.30956 z m 32.04051,-48.85841 c 0.0224,-16.12361 1.53547,-30.82264 4.8954,-47.556 0.56511,-2.81443 1.04008,-5.25795 1.05549,-5.43006 0.0209,-0.23361 -0.6487,-0.41284 -2.6418,-0.70712 -5.5725,-0.82279 -10.60163,-2.36501 -15.17435,-4.65334 l -2.93772,-1.47012 -2.1767,3.79424 c -5.9316,10.33945 -11.0466,21.88909 -14.33888,32.37705 -1.79866,5.7299 -4.19584,15.82424 -4.19584,17.66841 0,0.41422 0.39506,0.79036 1.83549,1.7476 8.73861,5.80724 18.77054,9.63982 31.53714,12.04838 0.91774,0.17314 1.77253,0.32436 1.89953,0.33603 0.15554,0.0143 0.2346,-2.64691 0.24224,-8.15507 z m -37.41697,-10.62362 c 2.95307,-15.42052 9.63477,-32.52631 18.7714,-48.05659 l 1.57068,-2.66981 -0.69946,-0.55621 c -4.06574,-3.23306 -6.99856,-6.82753 -8.97014,-10.99381 -0.52614,-1.11183 -1.08344,-2.49708 -1.23842,-3.07832 -0.15499,-0.58124 -0.35407,-1.0568 -0.4424,-1.0568 -0.0883,0 -1.56862,1.52944 -3.28954,3.39875 -9.99557,10.8575 -16.56618,21.45534 -20.65277,33.31115 -1.45719,4.22752 -2.79977,9.46723 -2.65477,10.36077 0.15241,0.93923 2.05338,4.85085 3.61469,7.43796 2.84892,4.72071 6.98281,9.60743 11.42029,13.50005 1.02728,0.90115 1.89167,1.61127 1.92087,1.57805 0.0292,-0.0332 0.3215,-1.46206 0.64957,-3.17519 z m -14.77858,-37.70506 c 3.17314,-7.1888 8.48315,-15.58055 14.22265,-22.47692 1.96276,-2.35838 7.78137,-8.61473 8.37174,-9.00156 0.48469,-0.31758 0.49156,-0.38915 0.37934,-3.94848 -0.0846,-2.68247 -0.0196,-4.29961 0.25004,-6.21941 0.39767,-2.83188 1.55184,-7.31914 2.45297,-9.53684 0.71838,-1.76792 0.71414,-1.91715 -0.0406,-1.43168 -3.95568,2.54439 -8.00854,6.29388 -9.79762,9.06422 -7.93851,12.29261 -14.10572,27.03109 -17.28493,41.30781 -0.77296,3.47109 -1.90352,9.60517 -1.88743,10.24065 0.005,0.18664 0.44864,-0.83844 0.98649,-2.27797 0.53785,-1.43953 1.59416,-4.01344 2.34735,-5.71982 z m 71.5235,-7.57543 c 3.43661,-0.28685 8.21436,-0.98972 11.45794,-1.68563 3.71842,-0.79778 7.58902,-1.89677 7.70014,-2.18633 0.0529,-0.13795 -0.60181,-3.10153 -1.45499,-6.58573 -3.33176,-13.60618 -6.29769,-26.96533 -8.14882,-36.70401 -0.56987,-2.99797 -1.08829,-5.60104 -1.15206,-5.78459 -0.34878,-1.00388 -6.35445,13.53638 -10.06242,24.36202 -3.06597,8.95128 -8.49356,28.26184 -8.06418,28.69121 0.20293,0.20293 6.89343,0.12935 9.72439,-0.10694 z m -11.48432,-4.93125 c 3.67816,-14.90288 10.06643,-33.93874 15.02363,-44.76756 0.44273,-0.96713 0.7711,-1.79228 0.72971,-1.83367 -0.13233,-0.13234 -9.75264,9.71448 -12.42147,12.71394 -5.33697,5.99812 -10.81353,12.78373 -15.53711,19.25086 -2.3021,3.15184 -8.05375,11.67943 -8.6489,12.82315 -0.23533,0.45225 -0.11764,0.54946 1.95307,1.61311 3.98821,2.0486 7.9783,3.36384 13.25411,4.36892 1.46839,0.27974 3.07791,0.5168 3.5767,0.52679 l 0.90688,0.0182 1.16338,-4.71372 z m -21.65135,-5.79866 c 8.89486,-13.93816 21.68982,-29.6927 32.98056,-40.60924 1.62986,-1.57584 2.58962,-2.64461 2.26871,-2.52639 -0.90912,0.33495 -4.36704,1.89031 -7.34197,3.30241 -13.48301,6.39995 -29.07126,16.76346 -38.48731,25.58746 l -1.66617,1.56141 0.51475,1.75344 c 1.35418,4.61286 4.18217,8.93919 7.93473,12.13873 0.97892,0.83466 1.84232,1.51758 1.91865,1.51759 0.0763,10e-6 0.92145,-1.22642 1.87805,-2.72541 z m 162.706,-5.06152 c 2.00518,-5.07162 3.62364,-10.98605 4.36603,-15.95511 0.83507,-5.58932 0.90871,-13.47408 0.13231,-14.16737 -0.56852,-0.50765 -4.99817,-2.93684 -8.14261,-4.46532 -10.46592,-5.08742 -21.98161,-8.6978 -34.4389,-10.79725 -3.62042,-0.61016 -11.18668,-1.56078 -12.39402,-1.55718 l -0.55621,0.002 -0.0288,3.0591 c -0.0471,5.00267 -1.24871,10.07957 -3.66866,15.49973 -0.59729,1.33778 -1.08597,2.4534 -1.08597,2.47915 0,0.0258 2.72822,1.40435 6.0627,3.06353 15.66318,7.79375 30.25489,16.99362 42.88382,27.03767 l 3.67099,2.91961 1.04988,-2.16858 c 0.57744,-1.19262 1.54469,-3.41995 2.14943,-4.94953 z m 41.82345,0.18414 c -2.62216,-6.5761 -8.03922,-16.64009 -12.37396,-22.98877 -7.81232,-11.442 -17.44776,-21.63364 -28.31035,-29.94456 -3.46922,-2.6543 -3.62732,-2.74592 -2.63433,-1.52658 3.91838,4.81149 6.93132,11.80404 8.31562,19.29909 0.30709,1.66276 0.58113,3.03216 0.60894,3.0431 0.0278,0.0109 1.25198,0.8091 2.72038,1.77368 8.41553,5.52817 16.11406,12.38541 23.24444,20.70433 2.28774,2.66909 6.58524,8.3645 8.34591,11.06073 0.6105,0.93491 1.14504,1.66481 1.18785,1.622 0.0428,-0.0428 -0.45422,-1.41217 -1.1045,-3.04302 z m -119.20938,-5.19792 c 6.72945,-5.36794 12.10282,-11.11557 16.18013,-17.30709 0.80384,-1.22067 1.35369,-2.26796 1.24507,-2.37151 -0.2654,-0.25301 -6.7908,-2.99276 -10.87377,-4.56544 -15.60701,-6.01154 -29.30165,-9.44157 -44.38559,-11.11703 l -1.00118,-0.11121 1.11242,1.03471 c 6.65252,6.1878 14.10055,13.49686 19.91051,19.53902 7.33782,7.63108 15.1877,16.02253 15.31615,16.37283 0.13291,0.36246 0.36687,0.22429 2.49626,-1.47428 z m -95.56959,-8.2286 c 10.63953,-9.33285 25.78694,-18.99883 39.49854,-25.20511 2.38239,-1.07835 4.58192,-2.07287 4.88783,-2.21006 0.74642,-0.33472 -4.68529,-0.3657 -9.01061,-0.0514 -11.78513,0.85641 -21.90881,3.27289 -30.30681,7.23413 l -2.53008,1.1934 -0.97337,2.08297 c -2.6304,5.6289 -4.10791,11.74257 -4.11895,17.04349 -0.005,2.40244 -0.2964,2.41241 2.55345,-0.0874 z m 115.63984,-16.06991 c 2.28353,-4.87746 3.54715,-10.08124 3.58797,-14.77587 0.0135,-1.54953 -0.0474,-2.8896 -0.1353,-2.97793 -0.0879,-0.0883 -2.54077,-0.26121 -5.45087,-0.38419 -7.9316,-0.3352 -19.35002,0.16893 -29.43059,1.29938 -6.0708,0.68079 -19.82349,2.83584 -21.46973,3.36431 -0.26146,0.0839 0.93132,0.35564 2.89229,0.65883 11.29186,1.74587 24.3637,5.35642 36.93238,10.20102 3.88467,1.49735 9.93632,3.99912 10.77004,4.45236 1.06474,0.57884 1.23648,0.44183 2.30381,-1.83791 z m -114.21442,-6.59696 c 0.47942,-0.86864 1.41006,-2.38028 2.06808,-3.35921 0.65802,-0.97893 1.28176,-1.93005 1.38609,-2.1136 0.10433,-0.18355 -0.81957,0.72731 -2.0531,2.02414 -2.38008,2.5022 -6.4967,7.18334 -6.4967,7.3876 0,0.067 0.95038,-0.43651 2.11197,-1.11889 2.00939,-1.18044 2.15432,-1.31742 2.98366,-2.82004 z M 525.0501,476.3687 c -2.08103,-8.73839 -4.94355,-13.8148 -12.22628,-21.68219 l -2.08117,-2.24823 -2.62789,-0.9186 c -7.37413,-2.57772 -15.09482,-4.31629 -23.54139,-5.30114 -5.69267,-0.66376 -18.56541,-0.50107 -22.97134,0.29031 l -0.72291,0.12985 1.61285,1.71464 c 1.99724,2.12327 3.60438,4.42744 4.92433,7.06002 1.04882,2.09183 2.04623,4.86515 2.28361,6.34961 0.0752,0.47025 0.22501,0.90956 0.33293,0.97625 0.10791,0.0667 1.67162,0.26739 3.4749,0.44599 13.93279,1.37991 26.53968,4.4021 38.43119,9.21292 3.2616,1.3195 9.66645,4.37309 12.01415,5.72789 0.85656,0.4943 1.58911,0.86927 1.62789,0.83328 0.0387,-0.036 -0.20012,-1.20176 -0.53087,-2.5906 z m -169.0636,-1.08266 c 9.35673,-3.80713 19.98221,-5.72226 32.96985,-5.94247 3.82151,-0.0648 6.90035,-0.19522 6.84188,-0.28982 -0.22692,-0.36717 -6.13122,-3.7045 -9.64816,-5.45351 -6.03685,-3.00219 -10.65446,-4.67231 -14.4543,-5.22792 l -1.81586,-0.26552 -1.27785,1.0658 c -2.31812,1.93343 -8.8483,8.62227 -10.70341,10.96345 -2.00852,2.53479 -4.44458,6.04358 -4.19591,6.04358 0.0482,0 1.07586,-0.40212 2.28376,-0.89359 z m 55.51877,-8.12583 c 17.1246,-3.47973 32.21433,-4.96343 47.96269,-4.71593 l 7.59976,0.11944 -0.43237,-1.56026 c -1.19764,-4.32184 -3.20495,-7.63354 -6.95002,-11.46631 -1.72716,-1.76761 -2.362,-2.28047 -2.82289,-2.28047 -0.32703,0 -1.83482,0.25223 -3.35064,0.5605 -14.80628,3.01115 -30.1369,9.44531 -43.35939,18.19763 -2.33137,1.5432 -2.86378,1.93291 -2.64073,1.93291 0.0649,0 1.86205,-0.35438 3.99359,-0.78751 z m -12.50673,-1.6042 c -0.4412,-5.62364 -0.68364,-12.79814 -0.60146,-17.79884 0.0916,-5.57158 0.0886,-5.61668 -0.36135,-5.47823 -3.59476,1.10613 -12.9137,5.5365 -17.47356,8.30719 -3.2169,1.95468 -7.34213,4.81483 -7.34213,5.09052 0,0.0923 0.62573,0.2968 1.39052,0.45435 5.62972,1.15977 16.73837,6.28365 23.52373,10.85035 0.4261,0.28677 0.82923,0.5214 0.89585,0.5214 0.0666,0 0.0524,-0.87604 -0.0316,-1.94674 z m 4.49039,-1.10536 c 3.89131,-5.66714 8.47772,-11.22672 13.00032,-15.75878 3.86835,-3.87646 6.88781,-6.44353 10.78658,-9.17049 2.0403,-1.42707 2.65768,-1.96202 2.33609,-2.02419 -0.24041,-0.0464 -2.94006,-0.0303 -5.99921,0.0359 -5.50656,0.11926 -8.80828,0.46018 -13.34906,1.37836 -1.83352,0.37074 -8.60385,2.07968 -8.727,2.20282 -0.0381,0.038 -0.17995,1.5055 -0.31537,3.26102 -0.24919,3.2303 -0.0142,12.03012 0.4811,18.01922 0.11598,1.40229 0.2125,2.88091 0.2145,3.28582 0.002,0.40492 0.089,0.68342 0.19343,0.61889 0.1044,-0.0645 0.72478,-0.8964 1.37862,-1.84862 z m 10.16308,-3.91289 c 12.03527,-7.13297 25.42774,-12.50224 37.60436,-15.07624 1.37662,-0.291 2.50294,-0.58899 2.50294,-0.66219 0,-0.20078 -2.99719,-1.86874 -4.95728,-2.75876 -3.60097,-1.6351 -11.44152,-3.88946 -13.57121,-3.90207 -1.09778,-0.007 -6.90289,3.7927 -11.14331,7.29283 -2.85097,2.35325 -8.77589,8.333 -11.39793,11.50342 -2.21063,2.67296 -6.09691,7.7503 -6.09691,7.96549 0,0.0629 1.0262,-0.55973 2.28046,-1.38367 1.25425,-0.82394 3.40475,-2.16441 4.77888,-2.97881 z m 84.38166,-15.20717 c -14.9708,-6.9192 -30.8056,-10.78202 -47.68403,-11.63227 l -4.41084,-0.2222 -2.27785,0.76211 c -1.25282,0.41916 -2.77206,0.98002 -3.3761,1.24637 l -1.09825,0.48428 1.95244,0.5029 c 5.84416,1.5053 11.41058,3.95081 15.55063,6.83192 l 1.26172,0.87804 2.85424,-0.35189 c 4.97311,-0.61311 8.04906,-0.79574 13.42223,-0.79695 7.74043,-0.002 15.96716,0.85843 22.13718,2.31462 2.86958,0.67726 3.16415,0.67427 1.66863,-0.017 z m -62.29557,-10.87043 1.44614,-0.76077 -1.66863,0.12505 c -2.95788,0.22167 -7.38802,0.72253 -7.51514,0.84964 -0.0679,0.0679 0.66912,0.13339 1.63785,0.14549 0.96873,0.0121 2.31198,0.0981 2.985,0.19116 0.67301,0.093 1.32378,0.1784 1.44614,0.18969 0.12237,0.0113 0.87326,-0.32182 1.66864,-0.74026 z"
           id="path3138"
           inkscape:connector-curvature="0" />
      </g>
      <path
         transform="matrix(3.4379929,-1.3373491,0.66867471,1.7189969,-567.11024,-86.60975)"
         d="m 255,537.36218 c 0,8.28427 -6.71573,15 -15,15 -8.28427,0 -15,-6.71573 -15,-15 0,-8.28427 6.71573,-15 15,-15 8.28427,0 15,6.71573 15,15 z"
         sodipodi:ry="15"
         sodipodi:rx="15"
         sodipodi:cy="537.36218"
         sodipodi:cx="240"
         id="path3915"
         style="fill:#e0e0e0;fill-opacity:1;stroke:#000000;stroke-width:3.64487982;stroke-miterlimit:4;stroke-opacity:1;stroke-dasharray:none"
         sodipodi:type="arc" />
      <path
         sodipodi:type="arc"
         style="fill:#e0e0e0;fill-opacity:1;stroke:#000000;stroke-width:3.64487982;stroke-miterlimit:4;stroke-opacity:1;stroke-dasharray:none"
         id="path3913"
         sodipodi:cx="240"
         sodipodi:cy="537.36218"
         sodipodi:rx="15"
         sodipodi:ry="15"
         d="m 255,537.36218 c 0,8.28427 -6.71573,15 -15,15 -8.28427,0 -15,-6.71573 -15,-15 0,-8.28427 6.71573,-15 15,-15 8.28427,0 15,6.71573 15,15 z"
         transform="matrix(5.6161556,-2.1846352,1.0923179,2.8080785,-1439.7424,-320.81722)" />
      <path
         transform="matrix(4.5724483,-1.7786423,0.88932137,2.2862248,-1328.709,-111.63177)"
         d="m 255,537.36218 c 0,8.28427 -6.71573,15 -15,15 -8.28427,0 -15,-6.71573 -15,-15 0,-8.28427 6.71573,-15 15,-15 8.28427,0 15,6.71573 15,15 z"
         sodipodi:ry="15"
         sodipodi:rx="15"
         sodipodi:cy="537.36218"
         sodipodi:cx="240"
         id="path3911"
         style="fill:#e0e0e0;fill-opacity:1;stroke:#000000;stroke-width:3.64487982;stroke-miterlimit:4;stroke-opacity:1;stroke-dasharray:none"
         sodipodi:type="arc" />
    </g>
  </g>
</svg>
